<svg width="60" height="70" viewBox="0 0 60 70" fill="none" xmlns="http://www.w3.org/2000/svg">
<path fill-rule="evenodd" clip-rule="evenodd" d="M14.6492 24.0413C20.4824 43.4939 4.29584 42.1057 14.6492 24.0413V24.0413Z" fill="#A4C628"/>
<path fill-rule="evenodd" clip-rule="evenodd" d="M14.6493 24.042C11.1669 10.2044 25.2965 15.1379 14.6493 24.042V24.042Z" fill="#A4C628"/>
<path fill-rule="evenodd" clip-rule="evenodd" d="M14.6492 24.0418C27.4096 16.2508 25.3339 34.9343 14.6492 24.0418V24.0418Z" fill="#A4C628"/>
<path fill-rule="evenodd" clip-rule="evenodd" d="M14.6492 24.0415C0.488305 30.5194 6.64657 11.0481 14.6492 24.0415V24.0415Z" fill="#A4C628"/>
<path fill-rule="evenodd" clip-rule="evenodd" d="M28.4974 4.61388C38.8696 2.40663 35.0621 12.8926 28.4974 4.61388V4.61388Z" fill="#E5005B"/>
<path fill-rule="evenodd" clip-rule="evenodd" d="M28.4976 4.61426C35.0248 14.6251 23.9149 15.1378 28.4976 4.61426V4.61426Z" fill="#E5005B"/>
<path fill-rule="evenodd" clip-rule="evenodd" d="M28.4974 4.61454C19.0506 6.3028 23.1832 -4.37079 28.4974 4.61454V4.61454Z" fill="#E5005B"/>
<path fill-rule="evenodd" clip-rule="evenodd" d="M28.4975 4.61421C24.4962 -2.56405 35.7186 -0.419326 28.4975 4.61421V4.61421Z" fill="#E5005B"/>
<path fill-rule="evenodd" clip-rule="evenodd" d="M44.5276 10.8542C43.9712 10.7292 43.9275 9.70372 44.7777 9.74124C45.628 9.77876 45.6155 11.7421 44.5276 10.8542Z" fill="#0099BA"/>
<path fill-rule="evenodd" clip-rule="evenodd" d="M37.6754 11.073C44.3401 19.0266 31.4546 20.4835 37.6754 11.073V11.073Z" fill="#2B86C3"/>
<path fill-rule="evenodd" clip-rule="evenodd" d="M37.6754 11.0733C48.1476 3.36351 50.7234 16.088 37.6754 11.0733V11.0733Z" fill="#2B86C3"/>
<path fill-rule="evenodd" clip-rule="evenodd" d="M37.6754 11.0736C35.7685 0.393708 47.0722 7.52194 37.6754 11.0736V11.0736Z" fill="#2B86C3"/>
<path fill-rule="evenodd" clip-rule="evenodd" d="M37.6754 11.073C32.8989 20.1896 29.1476 11.2606 37.6754 11.073V11.073Z" fill="#2B86C3"/>
<path fill-rule="evenodd" clip-rule="evenodd" d="M31.5735 23.1291C34.437 15.3568 38.7572 22.0786 31.5735 23.1291V23.1291Z" fill="#662D91"/>
<path fill-rule="evenodd" clip-rule="evenodd" d="M31.5735 23.1289C38.4882 27.2058 30.5481 28.7502 31.5735 23.1289V23.1289Z" fill="#662D91"/>
<path fill-rule="evenodd" clip-rule="evenodd" d="M31.5736 23.1289C29.4979 30.8824 25.8779 23.6416 31.5736 23.1289V23.1289Z" fill="#662D91"/>
<path fill-rule="evenodd" clip-rule="evenodd" d="M24.7149 17.6328C31.6734 23.3354 21.2075 26.1304 24.7149 17.6328V17.6328Z" fill="#FFCE00"/>
<path fill-rule="evenodd" clip-rule="evenodd" d="M24.7149 17.6331C16.7811 16.2324 22.0891 10.5048 24.7149 17.6331V17.6331Z" fill="#FFCE00"/>
<path fill-rule="evenodd" clip-rule="evenodd" d="M24.8088 17.3322C29.0164 9.37859 33.8242 19.083 24.8088 17.3322V17.3322Z" fill="#FFCE00"/>
<path d="M25.1902 5.09563C25.6216 5.22068 26.0655 5.26445 26.4468 5.29572C26.4968 5.30197 26.5594 5.30822 26.6156 5.31448C26.847 5.33949 27.1283 5.37075 27.3534 5.30822C27.3596 5.31448 27.3596 5.32073 27.3659 5.32698C27.3784 5.34574 27.3971 5.37075 27.4159 5.38951C26.847 6.45249 26.5656 7.66554 26.3906 8.60347C26.1467 9.86654 25.9342 11.3109 26.4593 12.5302C26.5906 12.8366 26.9783 13.5682 27.7097 13.6245C28.2662 13.6683 28.8038 13.2931 29.1602 12.6115C29.7417 11.4923 29.8229 9.96659 29.404 7.95942C29.2978 7.44044 29.1602 6.93396 29.0289 6.45874C29.0102 6.38371 28.9914 6.30868 28.9664 6.22739C28.9289 6.07107 28.8851 5.90849 28.8351 5.75217C28.8476 5.74592 28.8664 5.73967 28.8789 5.73342C29.5791 6.74637 30.5607 7.55924 31.2421 8.08448C32.3363 8.93487 33.5304 9.71022 34.8308 9.61643C35.531 9.5664 36.0562 9.21625 36.2188 8.6785C36.4313 7.99694 36.0187 7.34665 35.7499 7.01525C35.0059 6.09608 33.7805 5.40202 31.9986 4.89554C31.8111 4.84551 31.6173 4.78924 31.3922 4.73921C32.3425 4.52037 33.124 4.02639 33.5241 3.3761C33.7242 3.0447 33.8242 2.66327 33.7992 2.2881C35.356 1.99422 37.0315 2.08801 38.1694 2.18806C41.533 2.48194 44.3527 3.41987 46.5534 4.98307C47.3787 5.57084 48.1977 6.28992 48.9792 7.12154C49.2105 7.36541 49.4293 7.62177 49.6482 7.87189C49.8545 8.10949 50.0733 8.35961 50.2921 8.59721C50.511 8.82857 50.7298 9.05367 50.9486 9.27877C51.1424 9.47886 51.3487 9.68521 51.5425 9.89155C51.5988 9.94783 51.6551 10.0166 51.7113 10.0916L51.7489 10.1354C51.8676 10.6732 51.7551 11.0171 51.3612 11.2859C50.8048 11.6674 50.5672 11.6924 50.4734 11.6423C50.4172 11.6173 50.3234 11.3735 50.2796 11.2547C50.2484 11.1796 50.2234 11.1171 50.2046 11.0796C50.1108 10.9108 50.0108 10.7357 49.9045 10.5606C49.6669 10.1667 49.3981 9.77275 49.1105 9.39132C48.0351 7.97193 46.7222 6.74638 45.1967 5.73967C42.8522 4.18896 39.895 3.35734 36.1625 3.18851C35.5248 3.15725 34.6808 3.13224 33.8493 3.18851C33.7617 3.19476 33.6929 3.23853 33.6554 3.31357C33.6179 3.39485 33.6242 3.48865 33.6679 3.55743C33.7117 3.61996 33.7742 3.65122 33.8555 3.64497C36.0687 3.4949 38.4195 3.7075 40.664 4.27025C44.4902 5.22694 47.7788 7.70306 49.6919 11.0733C49.792 11.2422 49.8795 11.4235 49.967 11.5986C49.992 11.6486 50.017 11.6924 50.042 11.7424C49.1668 12.0425 48.3165 12.3864 47.5225 12.7679C47.0723 12.9805 46.6222 13.2118 46.1908 13.4494C46.1408 13.4807 46.0845 13.5057 46.0345 13.537C45.7531 13.687 45.4343 13.8559 45.253 14.131C45.0967 14.3623 45.0404 14.7125 45.2592 14.9689C45.4468 15.194 45.7719 15.2502 46.1658 15.1314C46.7972 14.9438 47.4162 14.6312 48.0164 14.3311C48.254 14.2123 48.504 14.0872 48.7416 13.9747C49.6669 13.5432 50.6547 13.0993 51.6801 12.7366C51.7676 12.7053 51.8614 12.6678 51.9614 12.6303C52.324 12.4927 52.7367 12.3364 53.0868 12.3427C53.2806 12.3489 53.4432 12.449 53.5307 12.6178C53.637 12.8241 53.6182 13.0868 53.4807 13.2806C53.3994 13.3994 53.2493 13.4619 53.0993 13.5182C53.0555 13.537 53.0118 13.5557 52.968 13.5745L48.9542 15.4503C48.7666 15.5379 48.5666 15.6254 48.3727 15.7067C47.9789 15.8755 47.5662 16.0506 47.1974 16.2694C46.941 16.4195 46.7785 16.7071 46.7972 16.976C46.8097 17.1886 46.9348 17.3512 47.1473 17.445C47.4224 17.5575 47.6913 17.47 47.9664 17.3512C48.304 17.2074 48.6478 17.0573 48.9792 16.9135C49.148 16.8385 49.3106 16.7697 49.4794 16.6946L52.6179 15.3378C52.6804 15.3128 52.7679 15.269 52.8805 15.2127C53.4307 14.9438 54.5748 14.3873 55.0499 14.5999C55.1437 14.6437 55.2 14.7125 55.2312 14.8188C55.3375 15.2002 54.6561 15.4316 54.2497 15.5754C54.1621 15.6066 54.0871 15.6317 54.0308 15.6567L51.3112 16.7572C50.7985 16.9635 50.2734 17.1699 49.767 17.3699C48.7541 17.7701 47.7038 18.1828 46.6847 18.6268C46.4721 18.7206 46.2095 18.9144 46.1345 19.1708C46.0908 19.3271 46.1158 19.4834 46.2095 19.6335C46.6159 20.2525 47.4787 19.8461 48.0539 19.5772C48.1664 19.5272 48.2665 19.4771 48.354 19.4396C50.3859 18.6268 52.4616 17.8264 54.5123 17.0573C54.6561 17.001 54.7999 16.9448 54.9436 16.8885C55.2875 16.7572 55.6376 16.6196 55.9877 16.5071C56.2503 16.4258 56.5567 16.3445 56.8193 16.4445C56.9756 16.5071 57.0881 16.6134 57.1256 16.7572C57.1694 16.901 57.1319 17.0636 57.0256 17.2011C56.8005 17.5075 56.3816 17.595 56.0065 17.6701C55.9502 17.6826 55.894 17.6951 55.8377 17.7076C55.2875 17.8327 54.7373 17.9702 54.2059 18.114C52.2365 18.6455 50.2859 19.3396 48.4103 20.1837C48.3602 20.2025 48.3102 20.2275 48.254 20.2525C47.6663 20.5026 46.6847 20.9278 46.991 21.7407C47.3162 22.5973 48.3978 22.1971 48.9229 22.0033C50.8611 21.2842 52.7554 20.4151 54.5498 19.4209C54.6998 19.3396 54.8561 19.2395 54.9999 19.1458C55.3 18.9582 55.6189 18.7581 55.9377 18.6518C56.1253 18.5892 56.3816 18.5705 56.5317 18.6768C56.6129 18.7331 56.6567 18.8206 56.663 18.9394C56.6692 19.1833 56.4379 19.3709 56.3003 19.4646C56.0065 19.6585 55.6564 19.8023 55.3188 19.9399C55.2125 19.9836 55.1062 20.0274 55.0062 20.0649C54.4435 20.3025 53.8558 20.5401 53.2681 20.759C53.1306 20.809 52.9743 20.859 52.8054 20.909C52.1552 21.1091 51.4175 21.3342 51.1299 21.9283C50.9986 22.1971 50.9986 22.4848 51.1299 22.7286C51.2674 22.9912 51.5425 23.1788 51.8614 23.2351C51.9302 23.2476 51.9927 23.2539 52.0615 23.2539C52.4866 23.2539 52.8492 23.035 53.2056 22.8287C53.4994 22.6536 53.7995 22.4785 54.1309 22.4285C54.2059 22.416 54.2622 22.3722 54.2872 22.3097C54.3184 22.2346 54.2997 22.1409 54.2434 22.0721C54.1871 22.0033 54.1059 21.972 54.0183 21.9845C53.612 22.0471 53.2931 22.2347 52.9555 22.441L52.8867 22.4785C52.4616 22.7349 51.9302 22.9787 51.6051 22.6411C51.48 22.5098 51.4363 22.391 51.4675 22.2659C51.5988 21.7532 52.9117 21.3342 53.5432 21.1342C53.6745 21.0904 53.7808 21.0591 53.8495 21.0341C54.2997 20.859 54.7623 20.6714 55.225 20.4776C55.325 20.4338 55.4251 20.3963 55.5251 20.3525C55.8689 20.215 56.2316 20.0649 56.5379 19.8648C56.8443 19.6647 57.0631 19.3583 57.1131 19.0582C57.1506 18.8394 57.0943 18.633 56.9568 18.4579C56.4316 17.8014 55.5876 18.3016 55.0312 18.633C54.9687 18.6705 54.9124 18.7018 54.8624 18.7331C53.9746 19.2395 53.0618 19.721 52.1427 20.1587C51.1862 20.6152 50.2046 21.0404 49.223 21.4155C49.1292 21.453 49.0355 21.4906 48.9292 21.5343C48.5978 21.6719 48.254 21.822 47.9289 21.8345C47.7163 21.847 47.5225 21.7469 47.4537 21.5906C47.3912 21.453 47.4224 21.303 47.5537 21.1717C47.71 21.0028 47.9726 20.8903 48.1977 20.7902C48.254 20.7652 48.304 20.7465 48.354 20.7215C50.1983 19.8773 52.1365 19.177 54.1121 18.6268C54.5748 18.5017 55.0437 18.3767 55.5126 18.2641C55.6314 18.2391 55.7502 18.2141 55.8627 18.1891C56.1816 18.1203 56.5192 18.0515 56.8193 17.9202C57.1756 17.7639 57.4757 17.4512 57.5695 17.1261C57.6445 16.8822 57.607 16.6384 57.4695 16.4258C56.9756 15.6629 55.969 16.0381 55.4251 16.2382C54.4872 16.5821 53.4994 16.9573 52.4116 17.3699C51.4112 17.7514 50.3984 18.1453 49.4106 18.5392C48.9229 18.7331 48.4165 18.9332 47.9164 19.1332C47.8413 19.1645 47.7663 19.1958 47.6913 19.227C47.5475 19.2833 47.4037 19.3458 47.2599 19.4021C47.2411 19.4084 47.2224 19.4146 47.2036 19.4209C47.1286 19.4521 47.0473 19.4834 46.966 19.4959H46.9535C46.8097 19.5459 46.766 19.5209 46.7597 19.5084C46.7347 19.4834 46.7347 19.4146 46.7597 19.3208L46.766 19.2958L46.7535 19.2708C46.7035 19.177 46.7097 19.1332 46.716 19.1145C46.7222 19.0957 46.741 19.0832 46.7785 19.0707L46.791 19.0645L46.8035 19.0582C46.8535 19.0144 46.9535 18.9832 47.0411 18.9582C47.0848 18.9457 47.1286 18.9332 47.1661 18.9144L50.9111 17.4012C51.3737 17.2136 51.8301 17.0323 52.2928 16.8447C53.2056 16.4758 54.1246 16.1069 55.0374 15.738C55.5188 15.5441 55.7439 15.219 55.6814 14.8063C55.6126 14.3248 55.2 14.0622 54.6435 14.1372C53.8871 14.231 53.1556 14.5749 52.4428 14.9063C52.2178 15.0126 52.0114 15.1127 51.7989 15.2002L48.0601 16.8134C48.0289 16.8259 47.9914 16.8447 47.9476 16.8635C47.7663 16.951 47.4224 17.1198 47.2849 17.0135C47.2099 16.9573 47.2161 16.9135 47.2161 16.8947C47.2224 16.851 47.2599 16.7572 47.4787 16.6321C47.6288 16.5446 47.7913 16.4758 47.9539 16.407C48.0351 16.3695 48.1164 16.3382 48.1977 16.3007L53.2931 13.9246C53.3244 13.9121 53.3494 13.8996 53.3806 13.8871C53.5182 13.8246 53.662 13.7621 53.7745 13.637C53.9871 13.3994 54.0809 13.018 54.0183 12.6616C53.9621 12.3614 53.812 12.1301 53.5807 12.0113C53.0618 11.7361 52.3991 11.98 51.8739 12.1801C51.7801 12.2114 51.6926 12.2489 51.6113 12.2739C50.6547 12.6053 49.7419 13.0117 48.9792 13.3556C48.6916 13.4869 48.3978 13.6245 48.1164 13.7621C47.5037 14.0497 46.8723 14.3498 46.2345 14.6062L46.2033 14.6312C46.1095 14.6687 46.0282 14.7 45.9407 14.7187L45.8219 14.7312L45.7094 14.2748C45.7719 14.1747 45.997 14.0622 46.147 13.9872C46.2033 13.9621 46.2533 13.9371 46.2908 13.9121C46.716 13.6683 47.1599 13.4369 47.61 13.2243C48.4915 12.7991 49.4418 12.4177 50.4234 12.0863C50.6735 12.1301 50.9611 11.9988 51.1487 11.9175C51.58 11.7299 51.8739 11.5173 52.049 11.2672C52.1865 11.0733 52.2615 10.8482 52.2615 10.5856C52.3866 10.6481 52.5366 10.6857 52.6742 10.7294C52.7742 10.7607 52.868 10.7857 52.9555 10.817C53.5119 11.0296 54.0621 11.2797 54.581 11.5611C56.2316 12.449 57.4445 13.6182 58.1885 15.0376C58.6449 15.9068 58.9012 16.8072 58.9387 17.6326C58.97 18.4017 58.8074 19.1958 58.3948 20.1962C58.3635 20.2713 58.376 20.34 58.4135 20.3963C58.4635 20.4588 58.5511 20.4901 58.6386 20.4776C58.7261 20.4651 58.7949 20.4151 58.8262 20.3338C59.4764 18.7393 59.5326 17.2511 59.0012 15.788C58.4948 14.3873 57.5945 13.1493 56.3879 12.2051C55.4563 11.4735 54.3184 10.8545 53.0055 10.3668C52.8242 10.298 52.6679 10.2417 52.5179 10.1979C52.4928 10.1917 52.4553 10.1729 52.4241 10.1604C52.3991 10.1479 52.3803 10.1417 52.3616 10.1354C52.2928 10.0791 52.2303 10.0166 52.1615 9.94783C52.1552 9.93532 52.1552 9.92282 52.149 9.91031C52.124 9.82277 52.0552 9.76024 51.9677 9.74774C51.8801 9.65394 51.7989 9.5539 51.7113 9.46011C51.5863 9.32254 51.4613 9.17248 51.3362 9.04117C50.9673 8.65349 50.5985 8.25331 50.2484 7.86563C49.4043 6.94021 48.5353 5.98353 47.5412 5.18317C45.3593 3.43237 42.6959 2.35688 39.4011 1.88792C37.1378 1.56903 35.2747 1.55652 33.6992 1.85666C33.5679 1.43772 33.2616 1.12507 32.8489 0.962501C31.686 0.499791 30.4356 1.35643 29.948 1.74411C29.5854 2.03799 29.279 2.36939 29.0227 2.65077C28.9852 2.68828 28.9414 2.73831 28.8976 2.78208C28.7351 2.9509 28.5413 3.15725 28.4537 3.36984C28.2599 3.35734 28.0599 3.39485 27.8848 3.47614C27.8535 3.43237 27.8223 3.39485 27.791 3.35734L27.741 3.29481C27.4847 2.96341 27.2096 2.63826 26.922 2.33187C26.5406 1.92544 25.5215 0.993765 24.3649 1.14383C23.9022 1.20011 23.5084 1.43772 23.252 1.81289C22.9832 2.20682 22.8957 2.7133 23.0207 3.19476C23.2333 4.0514 24.046 4.76423 25.1902 5.09563ZM26.847 8.65974C27.0158 7.7906 27.2783 6.66509 27.7785 5.68965C27.9661 5.79594 28.1724 5.84597 28.385 5.84597H28.3912C28.4287 5.95852 28.46 6.08357 28.4912 6.20238C28.51 6.27741 28.5288 6.34619 28.5475 6.40872C28.6538 6.78389 28.7601 7.19658 28.8789 7.66554C29.2227 9.09119 29.2915 10.298 29.1039 11.3672C28.9476 12.2176 28.6538 12.7866 28.2349 13.0492C28.0161 13.1868 27.7973 13.2181 27.591 13.1368C27.1783 12.9805 26.8907 12.4302 26.7657 12.005C26.4406 10.942 26.6281 9.76649 26.847 8.65974ZM29.5729 4.95181C29.6416 4.95181 29.7041 4.94556 29.7729 4.9393L29.8604 4.93305C29.9355 4.9268 30.0042 4.9268 30.0793 4.92055C30.1293 4.93305 30.173 4.94556 30.2168 4.95181C30.5982 5.02684 31.0108 5.12064 31.4797 5.23944C32.6676 5.53332 33.6242 5.93351 34.4182 6.45249C34.8746 6.75263 35.506 7.22784 35.7499 7.8969C35.8624 8.20954 35.8374 8.49092 35.6811 8.72227C35.4935 8.9974 35.1309 9.16622 34.7058 9.17873C33.5179 9.20999 32.4488 8.45965 31.536 7.75308C30.4982 6.94021 29.7667 6.22114 29.2602 5.4833C29.404 5.33323 29.5166 5.1519 29.5729 4.95181ZM30.1355 4.45784C29.973 4.42032 29.7792 4.3828 29.5979 4.36404C29.5666 4.18896 29.4978 4.02639 29.3915 3.88258C29.2665 3.7075 29.0977 3.56993 28.9039 3.47614C28.9914 3.31982 29.1602 3.15099 29.2978 3.00718C29.354 2.9509 29.404 2.90088 29.4416 2.85711C29.6416 2.63826 29.8855 2.38189 30.1605 2.14429C30.6607 1.72535 31.1671 1.45022 31.661 1.33767C32.3363 1.1751 33.124 1.37519 33.3241 2.06925C33.3241 2.11928 33.3303 2.16305 33.3553 2.20682C33.5554 3.3761 32.1174 4.12644 31.1546 4.32027C30.817 4.40156 30.4669 4.43283 30.1355 4.45784ZM27.1783 4.88928C26.997 4.92055 26.7282 4.88303 26.5281 4.85802C26.4531 4.84551 26.3843 4.83926 26.328 4.83301C25.8966 4.79549 25.5653 4.73921 25.2527 4.63917C24.5587 4.42657 23.7209 3.85756 23.4646 3.17601C23.3271 2.81334 23.3708 2.44442 23.5896 2.09426C23.7835 1.78162 24.0523 1.60654 24.3962 1.56903C24.4462 1.56277 24.4899 1.56277 24.54 1.56277C25.2214 1.56277 26.0154 2.05675 26.5031 2.54447C26.7719 2.81334 27.0095 3.10097 27.2158 3.35108C27.2471 3.39485 27.2846 3.43237 27.3221 3.47614C27.3909 3.55743 27.4597 3.63872 27.5222 3.72C27.2096 4.02014 27.0783 4.47034 27.1783 4.88928ZM52.4053 10.1479C52.4116 10.1604 52.4178 10.1792 52.4116 10.2042C52.3928 10.1979 52.3803 10.1917 52.3678 10.1854L52.4053 10.1479Z" fill="white"/>
<path d="M40.9766 11.311C42.0644 11.3048 43.5712 11.0922 44.584 10.1605C45.1154 9.6728 45.378 8.97873 45.2655 8.35345C45.1717 7.8157 44.8153 7.39051 44.2589 7.15915C42.7959 6.55263 41.0641 7.47805 40.1638 8.08457C40.1388 8.10333 40.1138 8.12209 40.0888 8.1346C40.3514 7.55934 40.6327 6.64642 40.3264 5.75852C40.145 5.23953 39.7699 4.82684 39.2948 4.62675C38.8696 4.45167 38.407 4.47043 37.9881 4.67678C36.7689 5.27705 36.5564 6.93405 36.5251 7.61561C36.5001 8.09083 36.5439 8.55979 36.5876 8.95372C36.5939 9.00999 36.6001 9.06627 36.6001 9.1288C36.6189 9.3539 36.6376 9.61027 36.7314 9.81661C36.5064 10.023 36.3626 10.3043 36.325 10.6045C36.2938 10.8608 36.3376 11.1109 36.4438 11.3423C36.3188 11.4674 36.2063 11.5987 36.0937 11.7237L36.0375 11.7863C35.6686 12.1989 35.3122 12.6366 34.9809 13.0931C34.637 13.5621 33.5679 15.2128 34.1056 16.801C34.3244 17.4388 34.787 17.9453 35.3747 18.1892C35.9124 18.4143 36.5001 18.3893 37.0315 18.1329C38.2007 17.5639 38.5445 16.2195 38.6446 15.3191C39.1385 16.4946 39.7574 17.345 40.5202 17.9078C40.7703 18.0891 41.3142 18.4268 41.9394 18.4268C42.152 18.4268 42.3708 18.3893 42.5896 18.2892C43.196 18.0266 43.5774 17.3951 43.6087 16.6009C43.69 14.7876 42.152 13.2494 41.2267 12.4928C40.764 12.1177 40.2701 11.7925 39.8449 11.5299C39.7699 11.4861 39.6949 11.4298 39.6136 11.3736C39.5636 11.3361 39.5136 11.3048 39.4573 11.2673C39.9325 11.3048 40.4326 11.3173 40.9766 11.311ZM37.788 12.6366L37.8255 12.768C37.9381 13.2057 38.0694 13.6496 38.2194 14.1311C38.2882 15.1128 38.2007 16.4571 37.3691 17.3263C36.9252 17.7952 36.3313 17.9703 35.7499 17.8202C35.1372 17.6577 34.6558 17.1512 34.4932 16.5009C34.1618 15.1878 34.9934 13.8559 35.3685 13.3432C35.6623 12.943 35.9812 12.5428 36.3313 12.1552L36.4188 12.0614C36.5126 11.9488 36.6126 11.8363 36.7189 11.73C36.919 11.9238 37.1816 12.0489 37.4629 12.0864C37.5254 12.0926 37.588 12.0989 37.6505 12.0989C37.688 12.274 37.738 12.4616 37.788 12.6366ZM39.4198 8.43473C39.3198 8.59105 39.2072 8.75988 39.0697 8.94747L39.0197 8.99124C38.9884 9.01625 38.9572 9.04126 38.9259 9.07252C38.8696 9.12255 38.8071 9.17257 38.7383 9.22884C38.5883 9.3539 38.4132 9.49146 38.2757 9.64778C38.1256 9.56024 37.9568 9.50397 37.788 9.47896C37.7318 9.4727 37.6755 9.46645 37.6192 9.46645C37.4442 9.46645 37.2754 9.49772 37.1128 9.5665C37.1003 9.50397 37.0941 9.43519 37.0878 9.37891C37.0815 9.34765 37.0815 9.31638 37.0753 9.29137C37.044 9.06627 37.019 8.83491 37.0003 8.64108C36.9628 8.20963 36.9565 7.87823 36.9753 7.55934C37.019 6.77148 37.2128 6.12743 37.5567 5.64597C37.9568 5.07696 38.7071 4.7268 39.3573 5.1645C40.4326 5.88983 39.9825 7.51556 39.4198 8.43473ZM38.8759 9.93541L38.9447 9.85413C39.0947 9.6728 39.2448 9.47896 39.3948 9.27887C39.5886 9.11004 39.7512 8.97248 39.9012 8.85367C40.7015 8.21588 41.9269 7.44678 43.2148 7.43428C43.8275 7.42803 44.5652 7.64688 44.8091 8.27216C45.0654 8.94121 44.6153 9.59151 44.1088 9.97918C43.3586 10.5544 42.3083 10.8483 40.9828 10.8608C40.5014 10.8671 40.0325 10.8546 39.5761 10.8233C39.5136 10.8171 39.4511 10.8171 39.3886 10.8108C39.2448 10.8046 39.0885 10.7983 38.9447 10.7795C38.9447 10.5357 38.8759 10.2981 38.7508 10.0917C38.7884 10.0355 38.8321 9.98544 38.8759 9.93541ZM38.7821 11.3986C38.9322 11.4736 39.0822 11.5737 39.2197 11.6675C39.2885 11.7175 39.3573 11.7612 39.4136 11.7925C39.8324 12.0489 40.145 12.249 40.4326 12.4553C41.7393 13.3682 42.6521 14.4875 43.0085 15.6005C43.2523 16.3571 43.2648 17.3263 42.5771 17.7827C41.9144 18.2204 41.0766 17.8265 40.5077 17.3013C39.7762 16.6322 39.2072 15.6568 38.7633 14.3249C38.7321 14.2249 38.6946 14.1186 38.6633 14.0185C38.6258 13.5933 38.557 13.1681 38.4945 12.818C38.482 12.7429 38.4695 12.6617 38.457 12.5741C38.4257 12.3553 38.3882 12.1114 38.3195 11.8863C38.5133 11.7738 38.6696 11.6049 38.7821 11.3986Z" fill="white"/>
<path d="M33.2928 23.51C33.3991 23.5037 33.4991 23.4975 33.5929 23.4975C34.2431 23.4787 35.4497 23.3287 36.2375 22.5658C36.6251 22.1907 36.8252 21.6717 36.7439 21.209C36.7002 20.9463 36.5501 20.5837 36.0749 20.3648C35.5248 20.1085 34.8558 20.1397 34.0805 20.4649C34.3181 19.9146 34.6182 18.8766 33.818 18.3014C33.5054 18.0763 33.1865 18.0138 32.8551 18.1138C32.0861 18.3514 31.5172 19.3956 31.3234 19.9209C31.1233 20.4711 31.0358 21.0339 30.9795 21.4653C30.9733 21.5216 30.9608 21.5841 30.9545 21.6529C30.9295 21.828 30.8982 22.0218 30.9045 22.2032C30.5919 22.3095 30.3606 22.5846 30.3106 22.916C30.2543 23.2974 30.4481 23.6726 30.7857 23.8477C30.7732 23.954 30.767 24.0603 30.7545 24.1603C30.7482 24.2103 30.7482 24.2541 30.7419 24.2979C30.7107 24.6668 30.6794 25.0607 30.7357 25.4609C30.8045 25.9299 31.0545 26.5989 31.536 26.9366C31.7298 27.0679 31.9423 27.1366 32.1674 27.1366C32.2612 27.1366 32.355 27.1241 32.4488 27.1054C32.8239 27.0178 33.1115 26.7927 33.2928 26.4551C33.5366 25.9924 33.5491 25.3296 33.3303 24.7668C33.1927 24.4167 32.9802 24.0728 32.6738 23.7289C32.6426 23.6976 32.6113 23.6601 32.58 23.6163C32.5613 23.5913 32.5425 23.5663 32.5175 23.5413C32.7926 23.535 33.0552 23.5225 33.2928 23.51ZM33.3866 20.815C33.249 20.8963 33.1115 20.9901 32.9739 21.0839C32.6238 21.334 32.2987 21.6154 32.0611 21.8342C32.0236 21.8718 31.9799 21.903 31.9361 21.9405C31.8298 22.0343 31.7048 22.1344 31.6047 22.2469C31.5235 22.2032 31.4359 22.1719 31.3421 22.1531C31.3421 22.0218 31.3672 21.8593 31.3922 21.7217C31.4047 21.6529 31.4172 21.5966 31.4234 21.5466C31.4672 21.1589 31.5172 20.865 31.586 20.5899C31.736 19.9897 31.9423 19.5207 32.2237 19.1455C32.4425 18.8516 32.8426 18.5327 33.2053 18.5327H33.2115C33.4053 18.5327 33.5679 18.6328 33.6992 18.8141C34.1618 19.4707 33.7054 20.3461 33.3866 20.815ZM31.9173 23.5538C32.0236 23.6226 32.1424 23.7664 32.2237 23.8664C32.2549 23.9039 32.28 23.9352 32.305 23.9602C32.4425 24.1165 32.6238 24.3291 32.7614 24.5792C32.9427 24.8981 33.1302 25.3796 33.0365 25.8611C32.9552 26.2738 32.6301 26.6739 32.1737 26.6614C31.3734 26.6302 31.1608 25.5609 31.1608 25.0044C31.1608 24.9544 31.1608 24.8981 31.1608 24.8356C31.1546 24.5605 31.1546 24.2228 31.2046 23.9352C31.4859 23.9289 31.7548 23.7914 31.9173 23.5538ZM32.43 22.4658C32.4738 22.4283 32.5113 22.3907 32.555 22.3595C32.9614 22.0093 33.2865 21.7092 33.5679 21.3465C33.6054 21.2965 33.6492 21.2402 33.6929 21.1777C34.0493 20.9713 34.3869 20.8275 34.7245 20.7462C35.1184 20.6462 35.6998 20.6212 36.0499 20.8713C36.2187 20.9901 36.3125 21.1652 36.3313 21.384C36.3563 21.6717 36.2625 21.928 36.0624 22.1594C35.506 22.7972 34.2994 23.016 33.7367 23.041C33.4116 23.0598 33.0615 23.0598 32.6738 23.0473C32.6176 23.0473 32.555 23.0473 32.4925 23.0473C32.355 23.0473 32.2174 23.0473 32.0861 23.0348C32.0861 22.9535 32.0736 22.8722 32.0486 22.7909C32.1799 22.6846 32.305 22.5721 32.43 22.4658Z" fill="white"/>
<path d="M29.2416 19.2894C29.5668 19.1018 29.7793 18.8142 29.8794 18.4328C29.9919 17.9951 29.9169 17.5636 29.6605 17.201C29.2416 16.607 28.4226 16.2881 27.8037 16.2318C27.3285 16.1943 26.8409 16.2443 26.2594 16.4006C26.2094 16.4131 26.1469 16.4256 26.0844 16.4444C25.8343 16.5007 25.5342 16.5694 25.3341 16.7195C25.1841 16.6132 25.0028 16.5507 24.8215 16.5319C24.7589 16.063 24.5901 15.5815 24.4463 15.15C24.4151 15.05 24.3776 14.95 24.3463 14.8562C24.1212 14.1683 23.5835 12.9178 22.5269 12.2925C21.983 11.9674 21.3203 11.9173 20.8389 12.1612C20.5701 12.2988 20.2324 12.5926 20.1637 13.2054C20.0386 14.4372 21.0765 15.569 21.9768 16.2943C22.3269 16.5819 22.6895 16.8196 23.0021 17.0196C23.0584 17.0572 23.1146 17.0947 23.1709 17.1384C23.3085 17.2322 23.4648 17.3448 23.6273 17.4198C23.546 17.8513 23.7211 18.2827 24.0837 18.5328C24.215 18.6204 24.3525 18.6829 24.5088 18.7079C24.5088 18.8455 24.5089 18.983 24.5151 19.1206V19.2144C24.5276 19.6771 24.5651 20.1398 24.6214 20.59C24.6964 21.1903 24.9903 22.6534 26.1031 23.2662C26.372 23.4163 26.6658 23.4913 26.9597 23.4913C27.166 23.4913 27.3723 23.4538 27.5661 23.3788C28.0225 23.2037 28.3601 22.8473 28.5227 22.3846C28.9541 21.1465 28.0225 19.9647 27.5348 19.4582C28.1913 19.5958 28.8165 19.5395 29.2416 19.2894ZM26.0406 18.2952C26.0156 18.2827 25.9906 18.264 25.9656 18.2514C25.8843 18.1952 25.803 18.1389 25.7155 18.0889C25.8655 17.7575 25.8405 17.3698 25.6467 17.0634C25.778 16.9884 25.9718 16.9446 26.1281 16.9133C26.1844 16.9008 26.2407 16.8883 26.2844 16.8758C26.5783 16.7945 26.9221 16.7133 27.291 16.6882C27.7161 16.6632 28.3226 16.707 28.8228 17.0321C29.2604 17.3135 29.6168 17.8763 29.3854 18.4453C29.2729 18.7142 29.0791 18.9017 28.8103 19.008C28.2601 19.2206 27.4536 19.0456 26.8971 18.7767C26.5845 18.6204 26.2782 18.439 26.0406 18.2952ZM25.7905 18.6704L25.8343 18.6954C25.9031 18.7454 25.9656 18.7892 26.0156 18.8267C26.3407 19.0393 26.7158 19.3019 27.0597 19.6271C27.6099 20.1523 27.9662 20.6963 28.11 21.2466C28.2976 21.9531 28.0663 22.816 27.2785 23.0224C26.9159 23.1162 26.572 23.0661 26.2594 22.8598C25.6155 22.4409 25.2091 21.4529 25.0903 20.665C25.0215 20.2086 24.9965 19.7334 24.984 19.377C24.984 19.3332 24.9778 19.2832 24.9778 19.2331C24.9715 19.0643 24.959 18.8892 24.9652 18.7142C25.1466 18.6704 25.3091 18.5891 25.4467 18.464C25.5592 18.5391 25.6717 18.6079 25.7905 18.6704ZM24.3525 16.5882C24.1275 16.6632 23.9337 16.8133 23.8024 17.0071C23.8024 17.0134 23.7961 17.0134 23.7961 17.0196C23.6461 16.9446 23.4898 16.8321 23.346 16.7258C23.2772 16.6757 23.2147 16.6257 23.1584 16.5944C22.8583 16.4006 22.5082 16.163 22.1831 15.8879C21.6204 15.4127 21.2078 14.9374 20.9264 14.4372C20.6826 13.9995 20.5138 13.3617 20.6951 12.924C20.7889 12.6989 20.9639 12.5489 21.2265 12.4801C21.3391 12.4488 21.4453 12.4363 21.5579 12.4363C22.5957 12.4363 23.4773 13.7932 23.8399 14.7999C23.9899 15.2188 24.1087 15.6565 24.1962 15.9879C24.2088 16.0505 24.2275 16.113 24.2463 16.1755C24.2838 16.3006 24.3275 16.4444 24.3525 16.5882Z" fill="white"/>
<path d="M11.0105 11.7421C11.6482 12.5112 12.6798 12.7175 13.6114 12.8176C14.024 12.8613 14.4429 12.8801 14.8493 12.8989C14.9306 12.9051 15.0118 12.9051 15.0994 12.9114C15.1556 12.9114 15.2182 12.9114 15.2869 12.9176C15.5245 12.9176 15.7871 12.9239 15.9621 13.0177V13.0239C15.9872 13.1052 16.0122 13.1927 16.0434 13.2803L16.0497 13.2928C15.8934 13.3991 15.7808 13.5179 15.6996 13.6555C15.512 13.9806 15.5683 14.5121 15.8183 14.7247C15.8684 14.7685 15.9559 14.8185 16.0684 14.8185C16.1685 14.8185 16.2998 14.781 16.4498 14.6559C16.7812 14.387 16.6999 13.9118 16.5874 13.5241V13.5116C16.7061 13.4554 16.8312 13.4116 16.9187 13.3803C17.0563 13.3303 17.2188 13.274 17.3814 13.224C17.4439 13.2303 17.5127 13.2178 17.5814 13.1865C17.6064 13.174 17.6252 13.1615 17.6502 13.1365C18.0003 13.0302 18.2942 12.9676 18.5693 12.9364C18.4067 13.299 18.2504 13.6617 18.1191 14.0056C18.0878 14.0806 18.1003 14.1494 18.1441 14.2057C18.1941 14.2682 18.2817 14.2995 18.3692 14.287C18.4567 14.2745 18.5192 14.2182 18.5505 14.1369C19.4195 11.8922 20.7262 9.77244 22.4393 7.84032C22.9644 7.25255 23.5021 6.7023 24.046 6.20833C24.2274 6.04575 24.3899 5.90194 24.5462 5.77063C24.565 5.75812 24.6087 5.7206 24.6462 5.68934C24.6838 5.65808 24.7088 5.63932 24.7275 5.62056C24.7275 5.62056 24.7338 5.62056 24.7338 5.61431C24.8526 5.52051 24.8401 5.36419 24.7713 5.2704C24.6963 5.17661 24.5837 5.1641 24.4899 5.23288C23.7209 5.8269 22.9644 6.55223 22.0516 7.59646C20.7137 9.1159 19.6133 10.7666 18.7693 12.4987C18.7318 12.4737 18.688 12.4674 18.638 12.4674C18.4505 12.4862 18.2566 12.5174 18.0441 12.5612C18.1441 12.4049 18.2316 12.2548 18.3192 12.111C18.8944 11.1106 19.2507 10.1914 19.4195 9.29098C19.6008 8.30303 19.5071 7.37761 19.1007 6.18957L19.0632 6.07702C18.8693 5.51426 18.6568 4.87647 18.2629 4.41376C18.0503 4.15739 17.8315 4.0636 17.6252 4.12613C17.4751 4.1699 17.4251 4.25119 17.3876 4.31372C17.3814 4.32622 17.3689 4.33873 17.3626 4.35123C16.6749 5.27665 15.9309 6.38966 15.6683 7.60896C15.4995 8.39682 15.7246 8.97208 16.1747 9.69116C16.7749 10.6603 17.3438 11.5733 17.0625 12.73C17.0563 12.7488 17.05 12.7738 17.05 12.7926V12.8051V12.8113C17.05 12.8301 17.05 12.8426 17.0563 12.8613C16.9875 12.8864 16.9187 12.9051 16.8499 12.9301C16.7311 12.9739 16.5999 13.0177 16.4623 13.0739C16.356 12.7175 16.2497 12.3674 16.1435 12.011C16.0747 11.7921 16.0122 11.567 15.9434 11.3482C15.8809 11.1481 15.8309 10.9417 15.7683 10.7229C15.4995 9.71617 15.1931 8.57815 14.3866 7.89034C13.4738 7.10873 12.2859 7.10248 11.1356 7.08998C10.7792 7.08998 10.4416 7.08372 10.1102 7.05871C10.054 7.05246 9.99769 7.07747 9.95393 7.11499C9.90391 7.15876 9.87891 7.22129 9.87891 7.28381C9.87891 7.8153 9.92892 8.39057 10.029 9.04086C10.1477 9.89125 10.3791 10.9792 11.0105 11.7421ZM10.3291 7.52142C10.5854 7.53393 10.8542 7.53393 11.1168 7.53393C12.0421 7.53393 12.9924 7.53393 13.7802 8.00914C14.6867 8.55939 14.9993 9.67865 15.2682 10.6666C15.3182 10.8354 15.3619 10.998 15.4057 11.1606L15.8058 12.5112C15.7183 12.4987 15.6245 12.4924 15.537 12.4862L15.4745 12.4799C15.2369 12.4612 14.9993 12.4549 14.7618 12.4424C14.5804 12.4362 14.3866 12.4299 14.1991 12.4174C13.3801 12.3674 12.1359 12.2861 11.4357 11.5545C10.8167 10.9105 10.5916 9.91001 10.4478 8.92831C10.3853 8.43434 10.3416 7.95912 10.3291 7.52142ZM16.1497 14.2495C16.0809 14.3058 16.0559 14.3058 16.0622 14.3058C16.0559 14.3058 16.0434 14.287 16.0247 14.1869C15.9934 14.0306 16.0497 13.8931 16.1872 13.7618C16.1935 13.793 16.1997 13.8243 16.206 13.8555L16.2122 13.8806C16.2435 14.0556 16.256 14.1682 16.1497 14.2495ZM17.2813 10.7229C17.1188 10.3602 16.9062 10.0288 16.6999 9.70366C16.5248 9.42854 16.3498 9.14716 16.1997 8.85328C15.6808 7.80905 16.5186 6.46469 17.075 5.57054C17.2751 5.24539 17.4939 4.92024 17.744 4.58884C17.869 4.68263 18.0003 4.8327 18.1003 5.00778C18.4192 5.56428 18.6755 6.2521 18.9194 7.17126C19.1694 8.10294 19.0757 9.17217 18.6568 10.3352C18.5005 10.7729 18.2942 11.2168 18.0378 11.6858C17.9253 11.8859 17.8065 12.0922 17.6815 12.2923C17.6627 12.3236 17.6252 12.3736 17.5877 12.4174C17.5752 12.4299 17.5689 12.4424 17.5564 12.4549C17.6314 11.8671 17.5377 11.2856 17.2813 10.7229Z" fill="white"/>
<path d="M59.8265 27.2184C59.814 26.7181 59.7327 26.1804 59.5764 25.6489C59.4201 25.1111 59.1826 24.711 58.8449 24.4296C58.6761 24.2858 58.4886 24.1795 58.3323 24.0982C58.0384 23.9419 57.8321 23.7355 57.6508 23.4104C57.5758 23.2791 57.5133 23.1415 57.4445 23.0102C57.2694 22.6538 57.0881 22.2911 56.763 22.0097L56.7255 21.9785C56.588 21.8659 56.4879 21.7784 56.5254 21.6033C56.5442 21.5033 56.6005 21.4345 56.688 21.4032C56.8005 21.3657 56.9443 21.4032 57.0444 21.497C57.1944 21.6283 57.2819 21.8409 57.3757 22.041C57.4257 22.1598 57.482 22.2849 57.5508 22.3912C57.7196 22.6663 57.9384 22.8539 58.276 23.029C58.3635 23.0727 58.4636 23.1165 58.5636 23.1603C58.8887 23.3041 59.2201 23.4541 59.3826 23.7418C59.4201 23.8106 59.4889 23.8543 59.5639 23.8543C59.5639 23.8543 59.5639 23.8543 59.5702 23.8543C59.6515 23.8543 59.7327 23.8106 59.7765 23.7355C59.8203 23.6667 59.8203 23.5855 59.7765 23.5104C59.5639 23.129 59.1888 22.9602 58.8262 22.7913C58.5011 22.6475 58.1947 22.5037 58.0009 22.2286C57.9134 22.1098 57.8446 21.9597 57.7696 21.7971C57.582 21.4032 57.3695 20.953 56.9006 20.903C56.6567 20.878 56.4316 20.9718 56.2691 21.1594C56.1003 21.3594 56.0378 21.6346 56.1128 21.8847C56.1753 22.0973 56.3004 22.1973 56.4379 22.3099C56.4754 22.3411 56.5192 22.3724 56.5629 22.4099C56.763 22.5913 56.8881 22.8539 57.0131 23.1102C57.0318 23.1478 57.0506 23.1853 57.0631 23.2165L57.0694 23.229C57.2069 23.5042 57.3444 23.7918 57.5508 24.0357C57.6133 24.1044 57.6758 24.1732 57.7508 24.2295C57.3257 24.4108 57.3257 24.8735 57.3257 25.255V25.305C57.3257 25.6739 57.3382 26.0553 57.3507 26.418C57.3632 26.7869 57.3757 27.1746 57.3757 27.5498C57.3757 27.9374 57.3632 28.2501 57.3319 28.5314C57.3257 28.5627 57.3257 28.594 57.3194 28.6315C57.3069 28.7878 57.2882 28.9942 57.2319 29.1192C57.1944 29.2005 57.1381 29.2505 57.0819 29.2505C57.0131 29.2505 56.9506 29.1943 56.9068 29.1005C56.8318 28.9191 56.8318 28.6315 56.8318 28.3751C56.8318 28.2438 56.8318 28.125 56.8255 28.0187C56.8005 27.7248 56.7693 27.4122 56.7255 26.9995C56.6942 26.7181 56.6567 26.4367 56.6255 26.1554C56.5754 25.7239 56.5192 25.2737 56.4754 24.8298C56.4379 24.4734 56.4129 24.1795 56.3941 23.9106C56.3941 23.8668 56.3879 23.8231 56.3879 23.7793C56.3754 23.5542 56.3691 23.3166 56.2566 23.1102C56.1503 22.9102 55.9753 22.7788 55.7752 22.7413C55.5876 22.7101 55.4001 22.7663 55.2438 22.9039C54.8311 23.2728 54.9624 23.8981 55.0625 24.4046C55.0812 24.5046 55.1 24.5984 55.1125 24.6797L55.4876 27.0558C55.5063 27.1683 55.5251 27.2809 55.5439 27.3997C55.6627 28.1063 55.7814 28.8378 55.6564 29.5382L55.6501 29.5819C55.5939 29.9258 55.5439 30.0384 55.5126 30.0696L55.3375 30.0321H55.325C55.2625 30.0446 55.2188 30.0384 55.2 30.0196C55.1875 30.0071 55.1812 29.9759 55.1875 29.9258V29.9071L55.1812 29.8883C55.1562 29.832 55.15 29.7382 55.15 29.6507C55.15 29.6132 55.15 29.5757 55.1437 29.5444C55.1125 29.213 55.0937 28.8566 55.0937 28.3876C55.0937 28.1625 55.0937 27.9249 55.0937 27.6998C55.1 26.468 55.1062 25.1987 54.6061 24.0669C54.4935 23.8106 54.2809 23.623 54.0684 23.5917C53.9496 23.573 53.7683 23.5917 53.5932 23.7918C53.3744 24.0482 53.3932 24.4046 53.4119 24.6922V24.711C53.4369 25.0736 53.4807 25.4551 53.5557 25.9553C53.6182 26.343 53.6933 26.7369 53.762 27.1183C53.8558 27.631 53.9558 28.1625 54.0246 28.6878C54.0871 29.188 54.1184 29.6382 54.1184 30.0509C54.1184 30.2697 54.1059 30.4698 54.0934 30.6637C54.0496 31.1014 53.9683 31.4015 53.9183 31.4203C53.8996 30.9638 53.8558 30.4761 53.787 29.8383C53.662 28.7566 53.4994 27.7874 53.2869 26.8744C53.1056 26.0991 52.893 25.2862 52.4804 24.5672C52.199 24.0732 51.7739 23.3291 50.9924 23.4166C50.8423 23.4354 50.6923 23.4604 50.5422 23.4917C50.3547 23.5292 50.1546 23.5667 49.9608 23.573C49.3918 23.6042 48.7854 23.5167 48.1664 23.3103C47.4912 23.0852 46.7972 22.7226 46.1033 22.2286C45.7969 22.0097 45.5156 21.7471 45.2405 21.4908C44.9779 21.2406 44.7028 20.9843 44.4027 20.7654C43.9651 20.4528 43.4149 20.2965 42.7709 20.3027C42.6459 20.3027 42.5083 20.3215 42.3645 20.334C41.9769 20.3778 41.583 20.4153 41.3017 20.2277C41.2017 20.1589 41.0766 20.1839 41.0079 20.284C40.9391 20.3778 40.9391 20.5278 41.0641 20.6154C41.3955 20.8405 41.8081 20.8155 42.1395 20.7967L42.2708 20.7904C42.7209 20.7592 43.1836 20.7279 43.6212 20.8717C44.0714 21.0218 44.4277 21.3657 44.7653 21.7034C44.9154 21.8472 45.0654 21.9972 45.228 22.1285C45.7219 22.535 46.2346 22.8914 46.7535 23.1728C47.9226 23.8168 49.0417 24.1044 50.0733 24.0232C50.2546 24.0107 50.4359 23.9731 50.611 23.9419C50.7485 23.9169 50.8923 23.8856 51.0361 23.8731C51.3362 23.8418 51.5113 23.9731 51.6926 24.192C52.2365 24.861 52.5054 25.6802 52.7179 26.468C52.9555 27.3559 53.1431 28.3251 53.2869 29.4381C53.4244 30.5011 53.4869 31.3577 53.4807 32.1331C53.4807 32.6583 53.3932 33.1836 53.3181 33.69C53.2931 33.8464 53.2681 34.0089 53.2431 34.1653C53.2369 34.1965 53.2369 34.2215 53.2306 34.2528C53.2118 34.1903 53.1931 34.134 53.1681 34.0777C53.1493 34.0402 53.1306 33.9964 53.1118 33.9652C53.0243 33.7838 52.9618 33.64 52.9368 33.4274C52.9055 33.0898 52.9118 32.7396 52.918 32.402C52.9243 32.1081 52.9305 31.8017 52.9117 31.5015C52.893 31.1827 52.7992 30.8825 52.7117 30.5949C52.6367 30.3448 52.5554 30.0884 52.5241 29.8195C52.4866 29.4694 52.4741 29.1067 52.4553 28.7566C52.4366 28.3251 52.4241 27.8874 52.3553 27.4497C52.2678 26.8807 52.0927 26.0741 51.5238 25.6301C51.1612 25.3425 50.711 25.2987 50.3171 25.5051L50.2546 25.5363C49.942 25.6989 49.6982 25.8302 49.3481 25.874C49.0855 25.9053 48.8104 25.9115 48.5416 25.9115C48.4353 25.9115 48.329 25.9115 48.2227 25.9178C47.2724 25.9428 46.4846 25.9365 45.6656 25.6176C45.2905 25.4738 44.9216 25.2925 44.559 25.1111C44.1089 24.8923 43.6462 24.6609 43.1648 24.4984C41.6768 24.0044 39.9888 24.242 38.6508 25.1362C38.1882 25.4425 37.738 25.799 37.3066 26.1429C37.1754 26.2492 37.0378 26.3555 36.9065 26.4555C36.3313 26.8995 35.7374 27.4059 35.2997 28.05C34.712 28.9129 34.5557 29.9696 34.8496 30.9888C33.5804 29.9321 32.0487 29.3256 30.5107 29.2818C29.5479 29.2505 28.5163 29.4444 27.2534 29.8821C26.1905 30.251 25.3527 30.7387 24.6775 31.3702C24.1211 31.8955 23.6209 32.502 23.6834 33.3836C23.7272 33.9276 24.0148 34.6155 24.6838 34.7405C25.3965 34.8781 26.0029 34.3841 26.5344 33.9527C26.7469 33.7776 26.947 33.615 27.1471 33.4962C28.1912 32.8647 29.4416 32.552 30.6732 32.6083C30.9358 32.6208 33.1615 32.7646 33.3991 33.9464C33.1928 33.8526 32.974 33.7901 32.7739 33.7276C31.7611 33.4274 30.5794 33.2836 29.4353 33.3149C28.7163 33.3399 28.1599 33.4399 27.6847 33.64C27.1158 33.8776 26.6281 34.3028 26.203 34.6717C26.1592 34.7092 26.1155 34.753 26.0655 34.7905C25.9029 34.9344 25.7341 35.0844 25.5528 35.2095C25.5278 35.2282 25.5028 35.2407 25.4778 35.2595C25.3715 35.322 25.2339 35.4033 25.2152 35.5659C25.1714 35.9536 25.8466 36.1662 26.2468 36.2975C26.3093 36.3162 26.3593 36.335 26.4031 36.3475C27.5722 36.7664 28.8476 36.8977 30.098 36.7227C31.1546 36.5788 32.5863 36.2037 33.4054 35.2658C33.6179 35.0219 33.7555 34.753 33.8117 34.4716C33.8555 34.4154 33.8618 34.3403 33.8368 34.2715C33.8743 33.7025 33.5867 33.1711 33.0427 32.8084C31.8861 32.0268 30.2668 32.1143 29.6291 32.1831C28.4037 32.3207 27.2659 32.7709 26.3343 33.4899C26.253 33.5525 26.1717 33.6213 26.0842 33.6963C25.7154 34.0027 25.3402 34.3216 24.8713 34.3028C24.4149 34.2841 24.2399 33.8526 24.1836 33.665C23.9023 32.7146 24.6212 31.9705 25.2715 31.4328C26.2655 30.6136 27.5284 30.2197 28.51 29.9759C30.8545 29.3818 33.199 30.0071 34.9434 31.6954C35.1309 31.8767 35.306 32.0643 35.4748 32.2581C35.5123 32.3082 35.5561 32.3582 35.5998 32.4082C36.9065 34.0402 37.5567 36.1724 37.5817 38.9237C37.588 39.2801 37.5817 39.6427 37.5817 39.9991C37.5817 40.3618 37.5755 40.7307 37.5817 41.0996C37.5817 41.2122 37.5817 41.331 37.5817 41.4436C37.5817 41.9875 37.5817 42.5566 37.713 43.0693C37.8631 43.6508 38.2444 43.9634 38.5946 44.1323C38.4258 44.1698 38.2382 44.1823 38.0381 44.1698C37.8756 44.1635 37.7005 44.1198 37.5317 44.0822C37.3191 44.0322 37.1066 43.9822 36.9003 43.9885C36.8252 43.9947 36.7565 44.0135 36.6814 44.026C36.6252 44.0385 36.5689 44.051 36.5189 44.0572C36.1 44.1073 35.7624 44.0322 35.5373 43.8446C35.3435 43.6821 35.2372 43.4445 35.2185 43.1318C35.2122 43.0443 35.1684 42.9755 35.0934 42.938C35.0184 42.9005 34.9184 42.9005 34.8496 42.9505C34.7871 42.988 34.7558 43.0568 34.7621 43.1381C34.8058 43.8446 35.1497 44.3136 35.7436 44.4699C35.9562 44.5262 36.2063 44.545 36.4751 44.5199C36.5439 44.5137 36.6189 44.4949 36.6939 44.4824C36.7815 44.4637 36.869 44.4387 36.9503 44.4449C37.0753 44.4449 37.2254 44.4824 37.3817 44.5262C37.5067 44.5575 37.638 44.595 37.763 44.6075C38.1507 44.6513 38.482 44.6388 38.7821 44.5637C38.9072 44.5325 39.026 44.4887 39.1447 44.4324C39.2885 44.8451 38.9634 45.164 38.6196 45.4954C38.3445 45.7643 38.0569 46.0394 37.9881 46.3958C37.9068 46.846 38.0819 47.2649 38.5133 47.6401C38.457 47.6401 38.4007 47.6401 38.3507 47.6464C37.9694 47.6839 37.663 47.8777 37.3629 48.0653C37.3254 48.0903 37.2941 48.1091 37.2566 48.1278C36.8502 48.3592 36.2 48.5843 35.6936 48.4655C35.4685 48.4092 35.2497 48.3092 35.0434 48.2029C34.8808 48.1216 34.712 48.0403 34.537 47.984C34.2244 47.8777 33.918 47.9778 33.743 48.2341C33.5492 48.5155 33.5617 48.8969 33.7805 49.1721C34.0931 49.5597 34.6808 49.7348 35.0997 49.8286C35.7936 49.9912 36.5752 50.0349 37.5567 49.9724C37.9694 49.9474 38.382 49.8974 38.7821 49.8536C38.8571 49.8474 38.9322 49.8349 39.0072 49.8286C38.9759 49.9787 39.0135 50.1162 39.1197 50.2288C39.2073 50.3226 39.3386 50.3726 39.5261 50.3976C39.6011 50.4039 39.6699 50.3976 39.7387 50.3914C39.7887 50.3851 39.8325 50.3789 39.8825 50.3851C40.0513 50.3914 40.2013 50.4601 40.2388 50.5602C40.2764 50.6477 40.2201 50.7353 40.1638 50.7915C39.9888 50.9854 39.6262 50.9854 39.3073 50.9854C39.2135 50.9854 39.126 50.9854 39.0447 50.9916C38.9322 50.9979 38.8196 51.0041 38.7134 51.0104C38.4633 51.0229 38.2132 51.0417 37.9631 51.0667C37.3504 51.1292 36.9878 51.3605 36.8752 51.7607C36.819 51.9608 36.8502 52.1609 36.9565 52.3172C37.0753 52.4861 37.2691 52.5986 37.5005 52.6236C37.7068 52.6424 37.9068 52.5986 38.1007 52.5611C38.1569 52.5486 38.2132 52.5361 38.2695 52.5236C38.6946 52.4423 39.126 52.4173 39.5511 52.4485L39.6324 52.4548C39.8075 52.4673 39.9888 52.4798 40.1388 52.5236C40.2764 52.5673 40.3826 52.6736 40.4014 52.7862C40.4139 52.8675 40.3764 52.9425 40.2951 52.9988C40.1013 53.1426 39.87 53.2552 39.6449 53.3615C39.5511 53.4052 39.4511 53.4552 39.3573 53.5053C39.2823 53.5428 39.201 53.5803 39.1135 53.6241C38.6633 53.8367 38.0944 54.0993 38.0756 54.6308C38.0506 55.206 38.6883 55.3561 39.1072 55.4624L39.1197 55.4687C39.126 55.4687 39.1385 55.4749 39.1447 55.4749C38.4007 55.4874 37.6693 55.4249 36.9503 55.2936C36.8627 55.2748 36.769 55.2561 36.6814 55.2373C35.1684 53.9805 34.1619 52.8737 33.4179 51.6482C33.2553 51.3856 33.1053 51.1042 32.9615 50.8353C32.7114 50.3789 32.4551 49.9099 32.1424 49.4784C31.9799 49.2533 31.7986 49.0282 31.6298 48.8094C31.2484 48.3279 30.8545 47.8277 30.5669 47.2712C30.2731 46.6897 30.0793 46.0519 29.898 45.4329C29.7979 45.089 29.6917 44.7263 29.5666 44.3824C29.2478 43.5007 28.8226 42.7629 28.2599 42.1251C27.6597 41.4436 26.9408 40.8745 26.2468 40.318C25.6153 39.8178 24.9589 39.2988 24.4024 38.6986C22.9019 37.0978 22.0391 34.9281 22.0892 32.8897L22.0954 32.6271C22.1017 32.4832 21.9891 32.4082 21.8828 32.402C21.7703 32.402 21.6453 32.477 21.6453 32.6208C21.6265 33.3211 21.5953 34.1527 21.5202 35.0031C21.5077 35.1219 21.489 35.247 21.4702 35.3783C21.4139 35.7472 21.3577 36.1286 21.4827 36.4851C21.5452 36.6539 21.6515 36.7914 21.7578 36.9165C21.8578 37.0416 21.9579 37.1541 22.0079 37.2979C22.2892 38.0733 22.4018 38.9487 22.4893 39.7803C22.4893 39.7928 22.4955 39.8241 22.5018 39.8616C22.5393 40.1555 22.5581 40.3368 22.5581 40.4494C22.508 40.3618 22.433 40.2368 22.3205 40.0617C22.2892 40.0117 22.2642 39.9679 22.2517 39.9554L22.2017 39.8616C22.0704 39.6302 21.9329 39.3864 21.7703 39.1675C21.2576 38.4672 20.6512 37.8169 20.0635 37.1854L20.051 37.1729C20.0698 37.0978 20.0885 37.0165 20.101 36.9478C20.1198 36.8602 20.1323 36.7789 20.1573 36.7227C20.2948 36.3287 20.5324 35.9286 20.8325 35.5846C20.9325 35.4721 20.895 35.3283 20.8075 35.2532C20.7137 35.172 20.5887 35.1782 20.5074 35.272C20.3261 35.4783 20.151 35.7222 20.001 35.9911C19.8759 36.2162 19.7759 36.4413 19.7071 36.6539C19.6884 36.7102 19.6821 36.7789 19.6696 36.8415C19.6571 36.929 19.6446 37.0228 19.6071 37.0791C19.5946 37.1103 19.5821 37.1291 19.5758 37.1541L19.5571 37.1416C19.4571 37.0853 19.3758 36.9478 19.307 36.829C19.2757 36.7727 19.2445 36.7227 19.2132 36.6726C19.0632 36.46 18.8819 36.2787 18.6755 36.1036C18.4005 35.8848 18.0941 35.7034 17.8003 35.5221C17.6627 35.4408 17.5189 35.3533 17.3814 35.2658C17.3689 35.2595 17.3501 35.247 17.3376 35.2407C17.4439 34.6592 17.4939 34.0089 17.4939 33.2398C17.4877 32.0893 17.3251 30.8262 17.0063 29.4881C16.8499 28.8316 16.6561 28.175 16.4686 27.5435C16.5624 27.6623 16.6499 27.7749 16.7374 27.8812C17.8753 29.2943 19.357 30.1447 20.7075 30.1447C21.5265 30.1447 22.308 29.7945 22.7894 29.2068C23.227 28.6753 23.3833 27.9937 23.2395 27.2871C22.8707 25.4926 20.8888 24.4921 19.7384 24.0544C19.5758 23.9919 19.4133 23.9356 19.2382 23.8793C20.3699 23.5042 21.7078 22.5913 21.9704 21.1656C22.233 19.7462 21.4202 18.2893 20.076 17.7828C18.463 17.1763 16.9312 18.2393 16.0372 19.4398C15.6308 19.9838 15.337 20.5653 15.0869 21.1156C15.0494 21.1969 15.0056 21.2844 14.9618 21.372C14.8555 21.5783 14.743 21.8097 14.6617 22.041C14.5179 22.041 14.3804 22.0598 14.2428 22.0973C14.074 21.7659 13.8802 21.447 13.6927 21.1343L13.6802 21.1093C13.23 20.359 12.7611 19.6712 12.286 19.0522C10.9043 17.2451 9.09741 16.1946 7.45312 16.2446C6.4528 16.2759 5.51499 16.7449 4.93355 17.5077C4.38962 18.2205 4.21456 19.1084 4.43964 19.9963C4.99607 22.2348 7.5219 23.2791 8.97237 23.7105C9.60383 23.8981 10.2478 24.0169 10.8667 24.1107C9.59758 24.3233 8.27214 24.6609 6.82167 25.1299C5.32743 25.6176 3.14546 26.4368 1.51368 27.9562C0.788443 28.6315 -0.355682 29.9571 0.106969 31.3202C0.525857 32.5645 2.01384 32.8522 3.26425 32.7021C5.43996 32.4457 7.76573 31.2327 10.3728 29.0067C11.0293 28.4439 11.6357 27.8624 12.3047 27.2121C12.6673 26.8557 13.055 26.4743 13.4301 26.0616L13.5051 25.9803C13.5614 25.924 13.6114 25.8615 13.6677 25.8052C13.0612 27.1558 12.6048 28.7253 12.2797 30.6011C11.9108 32.7271 11.9421 34.3779 12.3672 35.791C12.6423 36.7039 13.1988 37.8669 14.2866 38.2171C15.4182 38.5798 16.3498 37.7231 16.7999 36.8852C16.9875 36.5351 17.1375 36.1411 17.2501 35.7097C17.3626 35.7785 17.4752 35.8473 17.5877 35.9098C17.9941 36.1474 18.4192 36.3975 18.7256 36.7539C18.7818 36.8227 18.8444 36.9165 18.9069 37.0165C19.0757 37.2854 19.2882 37.6106 19.5883 37.6418C19.6884 37.6543 19.7697 37.6293 19.8447 37.5793L19.8947 37.6356C20.4324 38.2108 20.9888 38.8111 21.4515 39.4552C21.589 39.649 21.714 39.8678 21.8328 40.0742C21.8766 40.143 21.9141 40.218 21.9579 40.2868C21.9766 40.318 21.9954 40.3556 22.0141 40.3868C22.1267 40.5869 22.258 40.8183 22.4518 40.9371C22.4893 40.9558 22.5268 40.9746 22.5581 40.9871C23.7084 44.0447 25.3402 46.9273 27.2846 49.3284C27.1346 49.7035 27.0283 50.1037 26.9157 50.4852L26.8782 50.6165C26.6469 51.4293 26.4593 52.2672 26.2718 53.0738C26.0717 53.943 25.8654 54.8371 25.6153 55.7063C25.2527 56.9443 24.6963 58.0448 24.1086 59.2079L23.996 59.4267C23.7272 59.9582 23.5021 60.5084 23.2833 61.0462C22.9207 61.9466 22.5456 62.872 21.9579 63.6849C21.6578 64.1038 21.3139 64.5103 20.9826 64.8979C20.845 65.0605 20.7012 65.2293 20.5637 65.3982C20.2573 65.7671 19.9072 66.186 19.7384 66.6862C19.6634 66.8988 19.6321 67.1052 19.6446 67.2928C19.6696 67.6304 19.8259 67.7992 20.0447 67.9993C20.5824 68.4933 21.2764 68.7559 22.1142 68.7747C23.7209 68.806 25.2152 68.287 26.6594 67.7805C27.047 67.6429 27.4472 67.5054 27.841 67.3803C29.1977 66.9489 30.2356 66.8238 31.2171 66.9864C32.1862 67.1427 33.0928 67.5429 33.9305 67.9431C34.1556 68.0494 34.3869 68.1682 34.612 68.2745C35.306 68.6184 36.025 68.9748 36.7627 69.2437C37.663 69.5751 38.6383 69.8002 39.6512 69.919C40.0763 69.969 40.5515 70.0002 41.0641 70.0002C42.4333 70.0002 44.0526 69.7564 45.5593 68.9185C45.6844 68.8497 45.6969 68.7122 45.6406 68.6184C45.5844 68.5183 45.4593 68.4558 45.328 68.5246C43.8838 69.3312 42.0644 69.6688 40.0575 69.5C38.4383 69.3625 36.844 68.8747 34.8871 67.8993C33.3491 67.1364 31.611 66.2736 29.6666 66.4924C28.56 66.6175 27.5097 66.9989 26.4906 67.3678C25.6528 67.6742 24.79 67.9868 23.9085 68.1494C23.1583 68.2932 22.1954 68.4245 21.3952 68.2244C20.97 68.1181 20.5887 67.8993 20.2698 67.5741C20.101 67.4053 20.0635 67.2365 20.1323 66.9489C20.2448 66.4799 20.5949 66.061 20.9013 65.692L20.9513 65.6358C21.0701 65.4982 21.1826 65.3606 21.3014 65.2231C21.5953 64.8729 21.9016 64.5165 22.1829 64.1476C22.6831 63.4848 23.0645 62.8408 23.3396 62.178C23.4584 61.8966 23.5709 61.6027 23.6772 61.3213C23.8397 60.8836 24.0148 60.4397 24.2149 60.0082C24.3774 59.6706 24.5525 59.3329 24.715 59.0078C25.0901 58.2824 25.4778 57.5258 25.7591 56.738C26.1655 55.5937 26.4406 54.3932 26.7032 53.2239C26.8595 52.5361 27.022 51.8233 27.2096 51.1292C27.3221 50.7165 27.4534 50.235 27.616 49.7536C27.616 49.7473 27.6222 49.7348 27.6222 49.7286C27.7098 49.8349 27.791 49.9286 27.8723 50.0287C30.0855 52.5798 32.5301 54.3306 35.1372 55.2311C37.9756 56.2127 41.0579 56.0877 43.815 54.8809C44.9716 54.3744 46.0595 53.6616 47.0536 52.7612C46.6409 53.1926 46.2908 53.6241 45.9845 54.0743C45.6406 54.5808 45.4281 55.1623 45.2155 55.7688C45.0967 56.1064 44.9904 56.4504 44.8841 56.788C44.7716 57.1444 44.6528 57.5196 44.5278 57.876C44.3027 58.52 44.0026 59.0828 43.7337 59.5455C42.7834 61.2088 41.7831 63.6161 42.4396 65.6858C42.871 67.0427 43.9776 67.7117 44.8904 68.0369C44.1276 68.3182 43.3524 68.3933 42.8147 68.4058C41.2892 68.4495 39.1322 68.287 37.5317 67.3053C36.6627 66.7738 35.9437 66.0234 35.2435 65.2981C34.7183 64.7541 34.1744 64.1851 33.5679 63.7161C32.0862 62.5656 30.4044 62.1404 28.9539 62.5594C28.0536 62.8157 27.2659 63.3222 26.5031 63.8162C25.7716 64.2852 25.0089 64.7729 24.1586 65.0355C24.0148 65.0793 23.9773 65.2168 24.0085 65.3231C24.0398 65.4294 24.1461 65.5107 24.2836 65.4732C25.1714 65.2043 25.9467 64.7041 26.7032 64.2226C27.2596 63.8662 27.8348 63.4973 28.4475 63.2284C30.073 62.5093 31.9549 62.9158 33.6117 64.3352C34.0868 64.7416 34.5307 65.2043 34.9621 65.6483C35.7374 66.4549 36.5376 67.2865 37.5442 67.8368C38.8196 68.5308 40.5452 68.881 42.6834 68.8622C43.4462 68.856 44.8904 68.7309 46.0157 67.9806C46.097 67.9306 46.1533 67.818 46.1158 67.718C46.0533 67.5679 45.9907 67.4178 45.9282 67.2678C45.6531 66.63 45.3718 65.9734 45.328 65.2669C45.2405 63.96 45.4468 62.6157 45.6406 61.3213C45.6781 61.0587 45.7219 60.7898 45.7594 60.5272C45.7782 60.3896 45.7969 60.2521 45.8157 60.1145C45.972 58.989 46.122 57.9323 46.4534 56.8505C46.8723 55.4999 47.3849 54.1868 47.7851 53.1926C47.8914 52.9238 48.0101 52.6424 48.1352 52.336C48.1539 52.311 48.1664 52.2797 48.1727 52.2484C48.3728 51.7732 48.5541 51.3543 48.7229 50.9666C49.0417 50.5602 49.3543 50.1287 49.6357 49.691C51.0049 47.5651 52.0177 45.0202 52.6367 42.1251C52.843 41.1559 53.0055 40.1617 53.1056 39.1738C53.4244 38.6423 53.7308 38.0483 54.0746 37.3104C54.1997 37.0416 54.3122 36.7664 54.4185 36.4976C54.5623 36.1474 54.7061 35.7847 54.8811 35.4471C55.1312 34.9594 55.4688 34.5467 55.7627 34.209C56.2191 33.6838 56.5754 33.1961 56.2691 32.502C56.1628 32.2644 56.0003 32.0893 55.8064 32.0018C55.9878 31.8955 56.2003 31.8267 56.4066 31.7517C56.4629 31.7329 56.5129 31.7141 56.5692 31.6954C57.1069 31.5015 57.4757 31.1014 57.8321 30.7074C57.8946 30.6387 57.9571 30.5699 58.0197 30.5011C58.176 30.3323 58.351 30.1822 58.5198 30.0321C58.7699 29.8133 59.0262 29.5819 59.2326 29.3068C59.5764 28.8629 59.7827 28.3501 59.8515 27.7936C59.864 27.6686 59.8765 27.5247 59.8765 27.3622C59.8828 27.3497 59.8828 27.3309 59.889 27.3184C59.8453 27.3059 59.8453 27.2621 59.8265 27.2184ZM58.8512 27.9812C58.7262 27.9624 58.6761 27.8311 58.6574 27.7248C58.6136 27.4997 58.6449 27.2246 58.6824 26.962C58.6949 26.8494 58.7136 26.7431 58.7199 26.6431C58.7324 26.5118 58.7449 26.3742 58.7637 26.2304C58.8074 25.8552 58.8574 25.4425 58.8012 25.0611C58.9575 25.28 59.0825 25.5426 59.1638 25.8677C59.3013 26.3992 59.3764 26.8932 59.3764 27.3309C59.3389 27.481 59.3013 27.631 59.2326 27.7498C59.1388 27.8999 58.9762 28 58.8512 27.9812ZM54.9249 32.2519C54.8749 32.3582 54.9062 32.477 54.9999 32.5458C55.0875 32.6083 55.2 32.602 55.2813 32.5208C55.4063 32.4082 55.5126 32.3894 55.6126 32.4645C55.8127 32.6146 55.919 33.121 55.8002 33.3649C55.7064 33.5587 55.5501 33.7338 55.3938 33.9026C55.3438 33.9527 55.3 34.0089 55.2563 34.059C54.9812 34.3778 54.7749 34.6592 54.6061 34.9281C54.2935 35.4471 54.0559 36.0161 53.8308 36.5726C53.6745 36.9478 53.5182 37.3354 53.3369 37.7044C53.2744 37.8232 53.2181 37.942 53.1618 38.0483C53.3181 36.7289 53.4619 35.6284 53.6057 34.6092C53.637 34.3841 53.6745 34.1527 53.712 33.9339C53.7933 33.4587 53.8746 32.971 53.8933 32.4895C53.8996 32.3019 53.9058 32.1018 53.8996 31.9017C54.1622 31.8955 54.3622 31.6329 54.431 31.3577C54.6248 30.5386 54.5623 29.6632 54.4935 28.9879C54.4247 28.3376 54.2997 27.6873 54.1872 27.0558C54.1622 26.9245 54.1371 26.7994 54.1121 26.6681C54.0371 26.2742 53.9558 25.8177 53.9058 25.3675C53.8746 25.1299 53.8558 24.9236 53.8433 24.7297C53.8245 24.4046 53.8683 24.1482 53.9496 24.1044C53.9871 24.0857 54.0496 24.1169 54.1309 24.1857C54.2872 24.3233 54.3685 24.7797 54.4185 25.0549C54.431 25.1111 54.4372 25.1612 54.4435 25.1987C54.5248 25.5801 54.5685 25.9991 54.5935 26.5118C54.6123 26.9307 54.6123 27.3559 54.6123 27.7749C54.6123 28.1375 54.6123 28.5189 54.6248 28.8879C54.6248 28.9566 54.6248 29.0379 54.6248 29.1317C54.6248 29.657 54.6186 30.4448 55.1187 30.6449C55.275 30.7074 55.4251 30.7074 55.5564 30.6387C55.8502 30.4886 55.9878 30.0571 56.044 29.8195C56.2066 29.113 56.119 28.3751 56.0128 27.6748C55.9252 27.0996 55.8315 26.518 55.7439 25.9553C55.7002 25.6864 55.6564 25.4175 55.6189 25.1487C55.6001 25.0174 55.5751 24.886 55.5564 24.7547C55.5126 24.4984 55.4688 24.2295 55.4313 23.9606C55.4313 23.9481 55.4251 23.9294 55.4251 23.9044C55.4126 23.8168 55.3876 23.6605 55.4001 23.5855C55.4251 23.4416 55.5063 23.2228 55.6126 23.1978C55.6814 23.179 55.7689 23.2603 55.8252 23.3291C55.9127 23.4291 55.9127 23.6355 55.9127 23.8043C55.9127 23.8543 55.9127 23.9044 55.919 23.9481C55.9627 24.6297 56.044 25.3175 56.1253 25.9865L56.1628 26.3117C56.2378 26.9432 56.3191 27.5998 56.3691 28.2501C56.3754 28.3251 56.3754 28.4189 56.3754 28.5189C56.3754 28.9316 56.3816 29.4944 56.788 29.682C57.0131 29.782 57.2007 29.782 57.357 29.6757C57.8759 29.3256 57.8321 27.9374 57.8134 27.3434C57.8134 27.2871 57.8071 27.2434 57.8071 27.2058C57.8008 26.9495 57.7946 26.6931 57.7821 26.443C57.7758 26.2429 57.7696 26.0491 57.7633 25.849C57.7633 25.7865 57.7571 25.7114 57.7508 25.6301C57.7258 25.305 57.6821 24.8173 57.8821 24.686C57.9759 24.6234 58.0509 24.6109 58.1072 24.6484C58.2885 24.7485 58.3385 25.2174 58.3385 25.43C58.3323 25.7489 58.3073 26.0803 58.276 26.3992C58.2635 26.5368 58.251 26.6681 58.2385 26.8057C58.2322 26.8744 58.226 26.9495 58.2135 27.0308C58.1572 27.5372 58.0697 28.3001 58.6949 28.4564C58.8699 28.5002 59.0262 28.4877 59.1763 28.4189C58.9575 28.9879 58.5261 29.4131 58.1322 29.7508C57.9259 29.9258 57.7383 30.1259 57.557 30.3198C57.1444 30.7575 56.7568 31.1701 56.1878 31.3577C55.7002 31.5141 55.1562 31.7517 54.9249 32.2519ZM45.178 61.0399C44.9904 62.303 44.7966 63.6098 44.8091 64.9042C44.8216 65.7171 45.0092 66.3486 45.2968 67.0489L45.5718 67.718C45.5031 67.7555 45.4343 67.793 45.3655 67.8305C45.3405 67.768 45.2905 67.718 45.2217 67.6992C44.3589 67.4366 43.2461 66.8551 42.8397 65.5795C42.5771 64.7479 42.6021 63.7662 42.921 62.5844C43.1711 61.659 43.5649 60.721 44.0901 59.7956C44.7091 58.7139 45.0842 57.5509 45.4155 56.5254L45.4593 56.3816C45.6656 55.7438 45.8782 55.081 46.2221 54.5057C46.4846 54.0743 46.8223 53.6366 47.2599 53.1801C46.8035 54.3119 46.4221 55.3686 46.0845 56.4003C45.9282 56.8818 45.7344 57.5133 45.5969 58.1511C45.5093 58.5701 45.4593 59.0015 45.4093 59.4142C45.3905 59.6018 45.3655 59.7956 45.3405 59.9832C45.2843 60.3334 45.228 60.6898 45.178 61.0399ZM52.6242 38.9862L52.6179 39.0425L52.6116 39.055C52.5741 39.1175 52.5679 39.1925 52.5991 39.2551C52.5491 39.7115 52.4804 40.193 52.3866 40.7682C51.9364 43.482 51.1362 45.9456 50.0108 48.0841C49.5106 49.0407 48.9354 49.9286 48.3102 50.7228C48.304 50.729 48.2977 50.7353 48.2977 50.7415C47.3349 51.9608 46.2471 52.955 45.0592 53.7054C43.8713 54.4557 42.5584 54.9747 41.1642 55.2498C41.1579 55.2498 41.1516 55.2498 41.1454 55.2498C40.5702 55.2123 40.0075 55.1748 39.4511 55.0685C39.201 55.0185 38.9634 54.9684 38.7509 54.8809C38.6508 54.8371 38.5883 54.7746 38.5696 54.6933C38.5508 54.612 38.5821 54.5182 38.6571 54.4307C38.7509 54.3181 38.9072 54.2431 39.051 54.1681C39.0885 54.1493 39.1322 54.1306 39.1698 54.1118C39.226 54.0805 39.3073 54.043 39.4011 53.9992C39.9137 53.7616 40.8703 53.3177 40.9516 52.7987C40.9766 52.6236 40.9016 52.4548 40.7265 52.2985C40.3889 51.9983 39.8012 51.9858 39.3761 51.9796H39.3198C39.276 51.9796 39.2323 51.9796 39.1948 51.9796C38.9447 51.9796 38.6946 51.9983 38.4445 52.0296C38.3757 52.0421 38.282 52.0609 38.1757 52.0921C37.9443 52.1547 37.5942 52.2422 37.4629 52.1672C37.3504 52.0984 37.3129 51.8858 37.3567 51.7982C37.4067 51.6982 37.5192 51.6294 37.6067 51.5982C37.7318 51.5481 37.8756 51.5356 38.0194 51.5231C38.2507 51.5044 38.482 51.4919 38.7071 51.4731C38.8196 51.4668 38.9322 51.4606 39.0385 51.4543C39.1322 51.4481 39.2323 51.4481 39.3386 51.4481C39.7324 51.4418 40.1763 51.4356 40.4639 51.2105C40.6077 51.0979 40.689 50.9354 40.7015 50.7415C40.714 50.5164 40.6202 50.2663 40.4577 50.1037C40.3264 49.9724 40.1763 49.9161 39.9825 49.9161C39.9513 49.9161 39.9137 49.9224 39.8637 49.9224C39.6136 49.9474 39.4761 49.9412 39.4511 49.9099C39.4511 49.9099 39.4511 49.8786 39.5261 49.7973C39.5324 49.7911 39.5386 49.7848 39.5386 49.7786C39.9325 49.7411 40.2514 49.7223 40.5452 49.7223C40.9578 49.7223 41.3517 49.7723 41.8144 49.8349C42.1707 49.8849 43.0835 49.9724 43.815 49.7473C44.0901 49.6598 44.2902 49.4347 44.3402 49.1595C44.384 48.8969 44.2777 48.6343 44.0463 48.4717C43.7713 48.2716 43.4837 48.3467 43.2023 48.4217C43.1085 48.4467 43.0148 48.4717 42.9272 48.4842C42.4271 48.5655 41.9457 48.2279 41.5205 47.934C41.4768 47.9027 41.4392 47.8777 41.3955 47.8465C40.814 47.4525 40.1638 47.4213 39.5074 47.7652C39.4949 47.7527 39.4824 47.7464 39.4698 47.7402C39.0947 47.5463 38.6258 47.3025 38.4758 46.8523C38.3195 46.3895 38.6196 46.1144 38.9384 45.8268C38.9634 45.8018 38.9947 45.7768 39.0197 45.7518C39.4949 45.3141 39.6949 44.8263 39.5824 44.3699C39.9825 44.3761 40.4077 44.3074 40.8265 44.1698C40.8828 44.151 40.9203 44.1323 40.9453 44.1198C40.9828 44.101 41.0016 44.0948 41.0516 44.0885C41.1016 44.0885 41.1579 44.0948 41.2142 44.101C41.2517 44.1073 41.2954 44.1135 41.333 44.1135C41.8769 44.151 42.6209 44.0885 43.071 43.607C43.3024 43.3632 43.4211 43.0318 43.4336 42.6066C43.4399 42.4628 43.3274 42.3877 43.2148 42.3815C43.1023 42.3815 42.9772 42.4565 42.9772 42.6003C42.9522 43.5195 42.0895 43.6571 41.5768 43.6633C41.5018 43.6633 41.4205 43.6571 41.3392 43.6446C41.2517 43.632 41.1579 43.6258 41.0704 43.6258C40.8828 43.632 40.689 43.6946 40.5014 43.7571C40.3576 43.8071 40.2138 43.8509 40.0763 43.8696C39.9763 43.8822 39.87 43.8947 39.7699 43.9009C39.8137 43.8384 39.8575 43.7696 39.895 43.7008C40.4827 42.6066 40.2388 41.1434 40.045 39.9616L40.0138 39.7615C39.92 39.1738 39.8075 38.5798 39.6949 38.0045C39.4448 36.7102 39.1885 35.372 39.1385 34.0339C39.1322 33.7838 39.126 33.5525 39.1322 33.3336C39.1698 33.3836 39.2135 33.4274 39.251 33.4712C39.3948 33.6213 39.5761 33.7338 39.7512 33.8401C39.8137 33.8776 39.87 33.9151 39.9262 33.9527C40.8578 34.5654 42.0207 34.9781 43.3774 35.1845C44.4402 35.3783 45.5656 35.347 46.6347 35.0782C47.3787 34.8968 48.7541 34.4591 49.6169 33.6025C49.7295 33.4899 49.7732 33.3899 49.7607 33.2899C49.7295 33.1148 49.5106 33.0147 49.3293 32.9334C49.0667 32.8146 48.8042 32.6646 48.5603 32.5145C48.329 32.3769 48.0852 32.2331 47.8351 32.1206C46.9535 31.7079 45.8657 31.5641 44.7653 31.7204C43.7025 31.8705 42.6084 32.2831 41.8331 32.8271C41.7081 32.9147 41.558 33.0272 41.4267 33.1585C41.433 33.096 41.4392 33.0397 41.458 32.9835C41.5643 32.577 41.9081 32.2144 42.4708 31.8955C43.3711 31.389 44.5027 31.1389 45.6469 31.1952C46.197 31.2202 46.741 31.3202 47.2724 31.4953C47.6038 31.6016 47.9101 31.7642 48.2102 31.9142C48.4103 32.0205 48.6166 32.1268 48.8292 32.2144C48.9104 32.2519 48.998 32.2394 49.0667 32.1831C49.1355 32.1331 49.1793 32.0455 49.1668 31.9643C49.1605 31.8955 49.1168 31.8392 49.0417 31.8079C48.8292 31.7141 48.6166 31.6078 48.4165 31.5015C48.1289 31.3515 47.8351 31.2014 47.5225 31.0889C46.9973 30.9075 46.4346 30.7887 45.8532 30.7387C44.7028 30.6449 43.5524 30.8575 42.5271 31.339C41.5955 31.7767 40.714 32.6145 41.0329 33.64C41.0891 33.8151 41.1767 33.9839 41.2892 34.134C40.9328 33.9839 40.5952 33.8151 40.2889 33.6275C40.2201 33.5837 40.1576 33.5462 40.1013 33.515C39.9575 33.4337 39.8575 33.3711 39.7074 33.2586C39.4323 33.0522 39.251 32.7271 39.201 32.3707C39.226 32.2144 39.251 32.0768 39.2823 31.9455L39.2885 31.9267C39.3323 31.7454 39.3823 31.5391 39.4761 31.3827C39.8762 30.8763 40.564 30.6387 41.1642 30.4261L41.1892 30.4136C41.9394 30.1509 42.7209 29.9258 43.5024 29.7508C44.3527 29.5632 45.2092 29.4256 46.0658 29.3443C46.3033 29.3193 46.5534 29.3131 46.791 29.3068C47.3162 29.2943 47.8601 29.2755 48.3478 29.113C49.0417 28.8879 49.4794 28.3439 49.4669 27.7311C49.4544 27.1433 49.1043 26.6869 48.7666 26.3492L49.023 26.3367C49.3043 26.3179 49.6419 26.2867 49.9545 26.1804C50.0733 26.1366 50.1796 26.0741 50.2859 26.0053C50.4047 25.9303 50.511 25.8615 50.636 25.8302C51.3487 25.6426 51.6863 26.7181 51.7489 26.9307C51.9239 27.5435 51.9427 28.2 51.9677 28.8253C51.9739 29.0129 51.9802 29.2005 51.9927 29.3881C52.0115 29.682 52.0302 30.0009 52.1052 30.301C52.1365 30.4323 52.1865 30.5511 52.2303 30.6699C52.2803 30.795 52.3303 30.9138 52.3553 31.0388C52.4553 31.4765 52.4428 31.9392 52.4303 32.3894C52.4241 32.5395 52.4241 32.6958 52.4241 32.8459C52.4241 33.3149 52.4428 33.7338 52.6554 34.1465C52.8867 34.5967 52.8367 35.1657 52.7617 35.716C52.6929 36.2037 52.6929 36.6977 52.6929 37.1854C52.6929 37.3479 52.6929 37.5043 52.6929 37.6668C52.6867 37.8794 52.6804 38.1045 52.6679 38.3484L52.6429 38.5422C52.6304 38.6485 52.6179 38.7611 52.6054 38.8674C52.6117 38.9237 52.6116 38.9549 52.6242 38.9862ZM39.6199 48.2279C39.6512 48.2091 39.6887 48.1841 39.7262 48.1653C40.2201 47.909 40.664 47.909 41.0766 48.1716C41.1454 48.2154 41.2142 48.2591 41.2829 48.3029C41.8456 48.6718 42.4271 49.047 43.1648 48.8907C43.2148 48.8782 43.2711 48.8657 43.3274 48.8469C43.5024 48.7969 43.6775 48.7406 43.7963 48.8407C43.865 48.8969 43.9025 48.9782 43.8963 49.0658C43.89 49.1533 43.84 49.2283 43.765 49.2659C43.4962 49.4159 43.0585 49.4034 42.7022 49.3972C42.6084 49.3972 42.5146 49.3909 42.4396 49.3909C42.1395 49.3909 41.8644 49.3596 41.5705 49.3221L41.4517 49.3096C40.9891 49.2471 40.4764 49.2408 39.845 49.2846C39.4386 49.3096 39.026 49.3596 38.6196 49.4034C37.3629 49.5472 36.0687 49.691 34.8558 49.2909C34.6745 49.2283 34.437 49.1408 34.2619 49.0032C34.0806 48.8657 34.0431 48.6531 34.1056 48.5343C34.1431 48.4592 34.2119 48.4217 34.3057 48.4217C34.3494 48.4217 34.3932 48.428 34.4495 48.4467C34.5182 48.4655 34.587 48.5093 34.662 48.5468C34.7245 48.5843 34.7808 48.6156 34.8496 48.6406C35.2497 48.8031 35.7061 48.9907 36.2188 48.9344C36.6627 48.8844 37.1191 48.7406 37.4942 48.5218C37.5442 48.4905 37.5942 48.4592 37.638 48.428C37.8256 48.3029 38.0069 48.1904 38.2257 48.1341C38.4883 48.0653 38.6821 48.1341 38.9134 48.2154C39.026 48.2529 39.1447 48.2967 39.276 48.3217C39.4198 48.3592 39.5199 48.2967 39.6199 48.2279ZM38.0256 38.4172C37.9506 35.8848 37.2629 33.7838 35.975 32.1706L35.9687 32.1643C35.8937 32.0706 35.8312 31.9955 35.7686 31.9205C35.2935 31.2764 35.0559 30.4448 35.1372 29.682C35.2997 28.2001 36.5752 27.2496 37.7005 26.4117C37.7818 26.3492 37.8631 26.2929 37.9444 26.2304C38.0194 26.1741 38.0944 26.1179 38.1694 26.0616C38.7134 25.6489 39.226 25.2612 39.8575 25.0236C40.639 24.7297 41.4642 24.6359 42.2395 24.7547C43.0148 24.8735 43.7275 25.2174 44.4152 25.5488C45.1592 25.9053 45.9282 26.2742 46.7847 26.3742C47.1661 26.418 47.585 26.4242 48.1414 26.4055C48.7291 26.937 49.0167 27.3809 49.0292 27.7749C49.0355 28 48.948 28.2063 48.7604 28.3876C48.2977 28.8503 47.51 28.8628 46.816 28.8754C46.5972 28.8816 46.3971 28.8816 46.2033 28.9004C44.5465 29.0442 42.9085 29.3818 41.3517 29.9008L41.333 29.9071C40.2889 30.2572 38.8572 30.7324 38.7259 32.033C38.7134 32.1518 38.7134 32.2706 38.7259 32.3957C38.7134 32.5208 38.7008 32.6396 38.6883 32.7584C38.5383 34.4904 38.8697 36.2537 39.1698 37.8044C39.2135 38.0295 39.2573 38.2484 39.301 38.4735C39.5449 39.7053 39.8012 40.9746 39.7512 42.2314C39.7324 42.6879 39.6699 43.2694 39.3511 43.6883C39.2948 43.7571 39.2385 43.8196 39.1698 43.8759C39.1635 43.8759 39.1572 43.8759 39.151 43.8759C38.9947 43.8446 38.8634 43.8009 38.7384 43.7383C38.332 43.5383 38.1194 43.1568 38.0631 42.5566C37.9881 41.7124 37.9944 40.8495 38.0069 40.0117C38.0381 39.4927 38.0444 38.9487 38.0256 38.4172ZM43.4399 34.059C42.971 34.0027 42.2958 33.8714 41.7081 33.5525C41.7769 33.4712 41.8581 33.3962 41.9394 33.3274C42.4521 32.9084 43.1148 32.6521 43.6337 32.4832C44.584 32.1706 45.4468 32.0643 46.3346 32.1643C46.941 32.2331 47.4537 32.4457 48.0289 32.7459C46.5222 33.7776 44.9341 34.234 43.4399 34.059ZM42.0019 34.1903C42.4208 34.3466 42.896 34.4529 43.4211 34.5154C45.5218 34.753 47.3224 33.8213 48.4728 32.9897L48.4853 32.996C48.6291 33.0773 48.7791 33.1585 48.9292 33.2398C48.9417 33.2461 48.9667 33.2523 49.0167 33.2774C49.0667 33.2961 49.1605 33.3336 49.2355 33.3649C49.1668 33.4087 49.0542 33.4837 48.8792 33.6088C48.8354 33.64 48.7979 33.665 48.7854 33.6775C48.3665 33.9527 47.9226 34.184 47.4537 34.3653C46.5472 34.7155 45.5656 34.8906 44.6028 34.8718C44.2214 34.8656 43.8838 34.8343 43.5712 34.7843C43.5462 34.7718 43.5212 34.7655 43.4962 34.7593C43.3961 34.7468 43.2961 34.728 43.1773 34.7092C42.7147 34.5842 42.3208 34.4154 42.0019 34.1903C42.0082 34.1965 42.0082 34.1903 42.0019 34.1903ZM25.8091 35.5909C25.8341 35.5784 25.8529 35.5659 25.8654 35.5534C25.9529 35.4909 26.0342 35.4221 26.1092 35.3595C26.2155 35.272 26.3218 35.1845 26.4343 35.0844C28.2724 35.9348 30.0918 36.1161 31.7111 35.6284C32.205 35.4783 32.6489 35.2908 33.0365 35.0657C32.3738 35.7847 30.9983 36.1161 30.3919 36.2287C29.129 36.4663 27.816 36.3725 26.5969 35.9411C26.4093 35.8785 26.2405 35.8097 26.078 35.7347C26.053 35.7222 26.0217 35.7097 25.9842 35.6972C25.9217 35.6722 25.8216 35.6409 25.7716 35.6034C25.7841 35.6034 25.7966 35.5972 25.8091 35.5909ZM26.8095 34.7593C27.022 34.5779 27.2784 34.3841 27.5472 34.2215C28.6163 33.6025 30.0418 33.7276 31.2984 33.8964C31.9549 33.9839 32.6426 34.1027 33.2303 34.3841C32.8239 34.6967 32.2863 34.9594 31.6673 35.1595C30.1731 35.6409 28.4975 35.5034 26.8095 34.7593ZM22.9519 40.6494C23.002 40.3243 22.9519 39.9804 22.9082 39.649C22.9019 39.5927 22.8957 39.5427 22.8894 39.4864C22.8269 38.9924 22.7456 38.5047 22.6456 38.0358C22.6331 37.9857 22.6268 37.9357 22.6143 37.8794C22.5518 37.573 22.4893 37.2479 22.3455 36.9728C22.2955 36.8727 22.2205 36.7914 22.1517 36.7102C22.1267 36.6789 22.0954 36.6476 22.0704 36.6164C21.8203 36.3037 21.8328 35.9973 21.8828 35.6284C21.9016 35.5034 21.9141 35.372 21.9266 35.2407C22.208 36.2287 22.6769 37.1979 23.2958 38.0733C24.021 39.0987 24.9901 39.8866 25.9279 40.6432C26.3406 40.9808 26.7719 41.3247 27.1721 41.6874C27.9661 42.4065 28.5163 43.1256 28.8664 43.8884C29.1165 44.4324 29.2915 45.0139 29.4603 45.5767C29.5854 45.9831 29.7104 46.3958 29.8605 46.8022C30.1981 47.7026 30.7482 48.4342 31.2797 49.1033C31.8173 49.7848 32.2237 50.4977 32.6551 51.248L32.7864 51.4794C33.4991 52.7174 34.4182 53.8304 35.6811 54.9622C32.7739 54.0993 30.0855 52.1547 27.6785 49.1908C27.666 49.1658 27.641 49.1408 27.6222 49.122C26.2593 47.4338 25.0339 45.4704 23.9773 43.2881C23.5959 42.5065 23.2458 41.6812 22.9332 40.8495C22.9269 40.8308 22.9207 40.8183 22.9082 40.7995C22.9269 40.762 22.9457 40.7057 22.9519 40.6494ZM16.6124 23.748C16.8124 23.7543 17.0438 23.8106 17.2563 23.8606H17.2438C17.0438 23.8918 16.8437 23.9294 16.6374 23.9544C16.6311 23.8918 16.6249 23.8231 16.6124 23.748ZM16.4498 24.8798C16.5186 24.7297 16.5686 24.5797 16.5999 24.4171C16.7874 24.3983 16.975 24.3671 17.1626 24.342L17.2063 24.3358C17.6002 24.2795 17.9816 24.2045 18.3317 24.1232C18.513 24.167 18.663 24.2045 18.8006 24.2483C19.951 24.5734 21.5015 25.2174 22.333 26.4493C22.7519 27.0683 23.0207 28.0125 22.5143 28.8066C22.1517 29.3693 21.464 29.7007 20.6699 29.7007C19.4758 29.7007 18.1441 28.9379 17.1063 27.6686C16.7562 27.2371 16.4061 26.7619 16.0497 26.2242C15.9809 25.9991 15.9121 25.8115 15.8371 25.6489C16.0935 25.4426 16.306 25.1799 16.4498 24.8798ZM18.9506 23.4917C18.7693 23.5479 18.5693 23.598 18.3254 23.6542C18.1879 23.623 18.0378 23.5855 17.869 23.5479C17.7753 23.5292 17.6752 23.4979 17.5689 23.4729C17.2563 23.3916 16.9 23.2978 16.5811 23.2978C16.5499 23.2978 16.5186 23.2978 16.4873 23.2978C16.2998 22.8289 15.9434 22.4474 15.4808 22.2348C15.3495 22.1723 15.2182 22.1285 15.0806 22.0973C15.1306 21.9785 15.1869 21.8597 15.2369 21.7596C15.2744 21.6908 15.3057 21.6221 15.3307 21.5595C15.4933 21.2031 15.6683 20.828 15.8684 20.4653C16.2498 19.765 17.3251 18.1392 18.9756 18.0767C19.6571 18.0517 20.3073 18.3268 20.8012 18.8521C21.3202 19.4023 21.5765 20.1401 21.5015 20.8655C21.3639 22.2786 20.0385 23.1603 18.9506 23.4917ZM15.587 26.368C15.612 26.443 15.6308 26.518 15.6558 26.5993C15.6871 26.7119 15.7183 26.8182 15.7558 26.9245C15.9622 27.5685 16.1622 28.2501 16.3685 29.0129C17.0125 31.3827 17.1688 33.3774 16.8562 35.1094C16.6936 35.9973 16.2498 37.5355 15.0806 37.8232C14.9681 37.8544 14.8555 37.8669 14.7493 37.8669C13.7427 37.8669 13.0425 36.7039 12.7236 35.6159C12.3547 34.3403 12.3172 32.8146 12.6173 30.9576C12.9362 28.9879 13.4051 27.3434 14.049 25.9365C14.4554 26.0678 14.8931 26.0616 15.2994 25.9178C15.3682 26.0303 15.4432 26.1429 15.512 26.2492L15.587 26.368ZM12.2985 26.518C11.7358 27.0808 11.1418 27.6435 10.4791 28.2501C8.64726 29.9258 6.77165 31.1264 4.90854 31.8267C3.68939 32.2831 2.00759 32.6583 0.944744 31.8392C0.594629 31.5703 0.407068 31.2264 0.388312 30.8262C0.344547 29.9633 1.07604 28.9441 1.72 28.3376C2.85787 27.2621 4.40212 26.418 6.59659 25.6739C8.82857 24.9173 10.823 24.4859 12.6798 24.3546C12.7486 24.7985 12.9674 25.2049 13.2925 25.5051C13.08 25.7677 12.8236 26.0116 12.5798 26.2492C12.486 26.3367 12.3922 26.4305 12.2985 26.518ZM9.9852 23.5229C8.42844 23.2103 6.34651 22.5037 5.27741 20.8967C4.67722 19.9901 4.58343 18.9146 5.03358 18.083C5.45872 17.3014 6.29024 16.7949 7.26556 16.7261C9.54131 16.5635 11.3481 18.6645 11.8483 19.3148C12.286 19.8838 12.7236 20.5216 13.1737 21.2657L13.2175 21.3344C13.4051 21.6346 13.5926 21.9472 13.7614 22.2724C13.3613 22.4725 13.0362 22.8039 12.8486 23.2165C12.7486 23.4354 12.6861 23.6667 12.6673 23.9106C12.6173 23.9169 12.561 23.9169 12.511 23.9231C12.3422 23.9044 12.1734 23.8793 12.0046 23.8543C11.8983 23.8356 11.792 23.8231 11.6983 23.8106C11.0043 23.7043 10.4729 23.623 9.9852 23.5229Z" fill="white"/>
</svg>
